<svg version="1.0" xmlns="http://www.w3.org/2000/svg" width="800.000000" height="800.000000" viewBox="0 0 800.000000 800.000000" preserveAspectRatio="xMidYMid meet">
  <metadata>
    <rdf:RDF xmlns:rdf="http://www.w3.org/1999/02/22-rdf-syntax-ns#" xmlns:rdfs="http://www.w3.org/2000/01/rdf-schema#" xmlns:dc="http://purl.org/dc/elements/1.1/">
      <rdf:Description dc:format="image/svg+xml" dc:Label="1" dc:ContentProducer="001191330110MACRLGPT8B00000" dc:ProduceID="382412094" dc:ReservedCode1="0FJ0D3Tw9UP4CI7+Iy7rGMf1CRcuMqgkxcMNgNpyx6w=" dc:ContentPropagator="001191330110MACRLGPT8B00000" dc:PropagateID="382412094" dc:ReservedCode2="0FJ0D3Tw9UP4CI7+Iy7rGMf1CRcuMqgkxcMNgNpyx6w="/>
    </rdf:RDF>
  </metadata>
  <g transform="translate(184.795923,617.597395) scale(0.054146,-0.054146)" fill="#000000" stroke="none">
    <path d="M3730 7894 c-755 -53 -1473 -314 -2039 -742 -606 -459 -1055 -1088 -1307 -1829 -296 -873 -279 -1861 47 -2719 279 -737 805 -1397 1465 -1840 460 -308 972 -507 1508 -584 669 -97 1381 -13 1991 235 109 44 327 151 433 211 464 266 915 680 1225 1126 294 422 483 839 613 1351 123 486 145 1153 53 1627 -75 384 -156 649 -291 948 -299 663 -758 1209 -1342 1597 -502 333 -1026 523 -1641 596 -163 19 -577 33 -715 23z m740 -154 c229 -30 392 -65 590 -124 809 -241 1475 -734 1947 -1441 648 -973 816 -2210 453 -3330 -164 -503 -445 -992 -794 -1380 l-45 -50 -25 30 c-31 37 -32 46 -6 68 11 9 20 24 20 32 0 34 -45 10 -165 -87 -69 -57 -138 -111 -153 -120 l-27 -17 -34 49 c-32 46 -62 63 -75 42 -3 -5 11 -35 31 -67 l36 -58 -25 -21 c-13 -12 -100 -79 -191 -149 -92 -71 -167 -135 -167 -143 0 -36 35 -21 141 60 61 47 114 86 118 86 14 0 84 -101 75 -110 -23 -22 -247 -180 -254 -180 -9 0 -182 202 -188 219 -1 4 41 44 95 88 54 45 109 93 122 106 23 26 22 47 -4 47 -10 0 -235 -183 -446 -364 -43 -36 -47 -50 -24 -83 15 -21 12 -23 -62 -72 -135 -88 -153 -102 -153 -117 0 -27 30 -27 66 1 l36 28 24 -29 c13 -16 33 -41 44 -55 l19 -26 -92 -35 c-51 -20 -139 -53 -196 -74 l-104 -38 -58 63 c-32 35 -56 67 -53 72 4 8 155 125 390 303 64 49 84 86 46 86 -11 0 -77 -45 -148 -100 -71 -55 -175 -136 -230 -179 l-102 -79 -33 34 c-18 19 -37 34 -42 34 -6 0 -43 -20 -85 -45 -41 -25 -85 -45 -97 -45 -13 0 -25 -6 -28 -14 -3 -8 -67 -51 -141 -97 -131 -79 -157 -105 -126 -124 6 -4 73 32 150 79 l140 85 70 -66 c39 -36 67 -69 63 -73 -23 -20 -317 -65 -528 -81 -207 -16 -601 -6 -775 20 -812 119 -1485 455 -2061 1030 -401 401 -677 834 -881 1381 -255 687 -297 1530 -112 2265 173 687 501 1273 979 1750 546 546 1240 890 2025 1005 226 33 324 39 620 35 204 -3 315 -9 430 -25z m2088 -6326 l23 -35 -88 -91 c-112 -115 -119 -118 -149 -82 -41 52 -50 75 -34 84 8 5 58 42 110 84 52 41 100 75 105 75 6 1 20 -15 33 -35z m-268 -216 c16 -22 30 -47 30 -53 0 -7 -21 -31 -46 -54 -51 -48 -52 -47 -101 22 l-32 43 52 42 c29 22 55 41 59 42 5 0 21 -19 38 -42z m-580 -206 c112 -133 150 -182 150 -190 0 -15 -288 -178 -345 -196 -16 -5 -29 5 -62 48 l-42 54 41 27 42 28 29 -37 c47 -58 67 -21 23 44 -12 19 -26 51 -29 70 -5 34 -3 37 76 102 45 37 87 68 92 68 6 0 17 -8 25 -18z m-797 -489 c47 -48 84 -89 82 -91 -2 -2 -37 -12 -78 -23 l-74 -19 -76 77 c-42 42 -74 79 -71 82 13 14 101 59 116 60 9 1 54 -38 101 -86z"/>
    <path d="M3849 6140 c-107 -18 -208 -93 -257 -190 -17 -34 -40 -125 -42 -166 0 -1 -33 -9 -72 -19 -203 -49 -479 -172 -640 -284 -309 -215 -548 -502 -686 -823 -90 -211 -139 -406 -149 -594 -7 -129 -3 -151 34 -195 58 -68 43 -67 703 -75 637 -7 631 -8 650 42 11 29 -5 71 -29 78 -9 3 -279 7 -601 11 -322 3 -593 9 -603 11 -31 9 -37 36 -26 135 30 300 145 607 317 848 77 109 235 277 337 361 259 211 608 360 940 399 170 20 456 9 602 -25 152 -35 378 -117 493 -181 255 -141 496 -365 652 -608 93 -144 218 -428 218 -495 0 -14 -33 -54 -90 -111 -49 -49 -90 -93 -90 -98 0 -18 42 -61 60 -61 27 0 34 19 15 40 -16 18 -14 22 50 89 37 39 71 68 75 66 8 -5 26 -137 36 -262 10 -131 35 -123 -386 -123 -192 0 -350 3 -350 8 0 15 92 122 105 122 14 0 75 -65 75 -80 0 -24 46 -8 67 23 12 18 41 50 63 72 l41 40 45 -52 c47 -55 68 -64 78 -37 7 19 -50 90 -173 217 -81 83 -121 106 -121 71 0 -9 29 -46 65 -83 36 -37 65 -71 65 -75 0 -4 -23 -34 -51 -67 l-52 -59 -33 37 c-19 20 -34 39 -34 42 0 4 16 26 35 50 37 46 43 65 23 77 -7 4 -27 -11 -51 -40 l-40 -47 -28 27 c-22 21 -27 33 -22 54 6 32 -11 47 -32 30 -11 -9 -18 -10 -29 -1 -7 6 -21 9 -30 5 -18 -7 -19 -13 -7 -33 11 -17 -3 -39 -68 -111 -22 -25 -41 -48 -41 -52 0 -17 -38 -6 -60 17 l-23 24 27 36 c44 57 12 78 -39 25 -26 -28 -29 -28 -56 -15 -15 8 -30 15 -34 15 -9 0 -5 -30 7 -49 10 -16 7 -25 -20 -55 -59 -68 -30 -91 37 -31 21 19 41 35 44 35 3 0 24 -16 47 -35 23 -19 50 -35 59 -35 10 0 48 38 86 85 37 47 73 85 80 85 6 0 24 -13 40 -30 l28 -29 -45 -53 c-24 -29 -54 -68 -67 -85 l-22 -33 -527 0 c-577 0 -560 2 -583 -58 -16 -41 8 -1314 26 -1417 39 -223 213 -413 440 -481 89 -26 240 -25 332 4 216 67 370 279 389 537 6 75 5 84 -15 104 -11 11 -32 21 -46 21 -42 0 -62 -33 -70 -118 -22 -239 -158 -399 -370 -434 -214 -36 -442 110 -518 331 -21 61 -27 209 -42 1019 l-6 364 888 -7 888 -7 45 24 c101 52 115 124 79 398 -41 309 -191 653 -391 895 -297 359 -666 584 -1129 689 -24 5 -27 12 -34 61 -13 111 -93 223 -189 266 -42 18 -152 40 -196 38 -14 -1 -46 -5 -71 -9z m162 -131 c65 -14 119 -61 149 -130 12 -28 19 -53 17 -56 -3 -2 -95 -4 -204 -4 -109 0 -217 -3 -240 -8 -23 -4 -44 -6 -47 -4 -9 9 23 95 48 127 52 68 165 99 277 75z"/>
    <path d="M5540 4319 c-51 -42 -65 -49 -89 -44 -27 6 -28 5 -29 -40 l0 -46 39 3 c27 1 41 7 44 19 5 16 46 55 119 116 15 13 25 27 21 33 -13 21 -46 8 -105 -41z"/>
  </g>
</svg>