<svg version="1.0" xmlns="http://www.w3.org/2000/svg" width="800.000000" height="800.000000" viewBox="0 0 800.000000 800.000000" preserveAspectRatio="xMidYMid meet">
  <metadata>
    <rdf:RDF xmlns:rdf="http://www.w3.org/1999/02/22-rdf-syntax-ns#" xmlns:rdfs="http://www.w3.org/2000/01/rdf-schema#" xmlns:dc="http://purl.org/dc/elements/1.1/">
      <rdf:Description dc:format="image/svg+xml" dc:Label="1" dc:ContentProducer="001191330110MACRLGPT8B00000" dc:ProduceID="382411718" dc:ReservedCode1="DxNPdELKnzxZJtXTQj+otcNMPNM0ALrZD4zQHVPknBY=" dc:ContentPropagator="001191330110MACRLGPT8B00000" dc:PropagateID="382411718" dc:ReservedCode2="DxNPdELKnzxZJtXTQj+otcNMPNM0ALrZD4zQHVPknBY="/>
    </rdf:RDF>
  </metadata>
  <g transform="translate(183.475161,617.447887) scale(0.054206,-0.054206)" fill="#000000" stroke="none">
    <path d="M3825 7880 c-259 -18 -389 -37 -685 -99 -465 -99 -968 -324 -1382 -620 -340 -242 -674 -585 -915 -938 -113 -166 -250 -409 -317 -563 -16 -36 -36 -83 -46 -105 -29 -67 -67 -166 -94 -247 -138 -417 -201 -772 -213 -1203 -22 -804 202 -1592 640 -2250 157 -235 289 -397 491 -603 336 -343 680 -584 1116 -785 535 -246 1100 -351 1753 -326 115 5 216 10 225 13 9 3 72 12 139 21 492 62 1018 253 1468 533 239 148 422 291 626 490 309 300 540 614 749 1017 347 669 499 1489 414 2234 -62 552 -201 997 -463 1486 -126 234 -314 503 -499 713 -515 585 -1211 993 -1952 1146 -362 74 -752 106 -1055 86z m630 -145 c495 -53 977 -207 1390 -443 966 -552 1635 -1562 1805 -2722 83 -573 31 -1175 -152 -1740 -171 -528 -476 -1048 -831 -1417 -87 -90 -89 -91 -115 -78 -15 8 -72 24 -127 36 -55 12 -104 26 -109 30 -6 5 -2 17 8 28 19 21 16 51 -5 51 -6 0 -26 -15 -45 -34 -31 -31 -38 -34 -67 -25 -49 14 -67 11 -67 -10 0 -21 31 -36 105 -51 28 -5 70 -15 94 -22 l45 -13 -70 -52 c-38 -28 -106 -74 -151 -103 l-83 -52 -34 21 c-40 25 -64 27 -73 5 -4 -10 4 -24 22 -38 l28 -23 -122 -66 c-121 -66 -123 -67 -154 -52 -38 19 -53 19 -61 -1 -10 -25 -7 -32 14 -39 16 -5 19 -12 14 -32 -7 -25 -6 -26 30 -19 29 6 42 3 63 -13 14 -12 32 -21 40 -21 25 0 26 30 3 50 -13 11 -21 22 -19 24 6 6 239 136 244 136 2 0 21 -11 41 -25 68 -46 104 -21 42 30 -27 21 -30 27 -18 34 94 56 239 163 255 188 23 37 25 37 95 22 l52 -11 -34 -35 c-41 -43 -240 -211 -288 -243 -19 -13 -46 -33 -60 -46 -49 -44 -318 -209 -465 -285 -174 -90 -422 -198 -473 -206 -29 -5 -34 -3 -30 9 4 8 -2 28 -13 44 -10 16 -19 34 -19 41 0 12 133 113 150 113 5 0 10 -5 10 -10 0 -10 58 -50 73 -50 14 0 7 38 -13 63 -11 14 -20 29 -20 34 0 4 63 53 140 108 100 72 139 105 137 118 -2 20 -79 51 -155 63 -23 3 -45 10 -48 15 -8 14 -44 10 -44 -5 0 -20 18 -31 81 -50 59 -19 86 -32 79 -39 -21 -18 -229 -167 -234 -167 -10 0 -96 136 -108 170 -11 33 -42 41 -52 13 -6 -14 43 -110 101 -199 13 -20 9 -24 -61 -76 l-74 -56 -26 48 c-31 57 -32 67 -7 75 11 3 23 15 27 27 9 29 -15 41 -44 22 -18 -12 -26 -13 -38 -3 -8 6 -14 17 -14 24 0 20 -34 45 -49 36 -11 -7 -11 -16 2 -55 15 -44 15 -47 -1 -53 -9 -4 -30 -16 -47 -28 -51 -37 -54 -38 -65 -11 -12 32 -50 36 -50 5 0 -11 5 -29 10 -40 9 -16 3 -24 -45 -55 -31 -19 -54 -41 -52 -47 7 -21 49 -19 79 3 32 24 58 21 58 -7 0 -25 28 -63 46 -63 18 0 18 36 0 88 -15 41 -14 42 12 63 21 16 85 49 97 49 1 0 26 -41 56 -91 29 -50 66 -101 81 -114 34 -29 27 -35 -72 -63 -247 -70 -431 -108 -665 -138 -166 -22 -669 -25 -825 -6 -336 42 -665 122 -945 230 -293 113 -636 307 -879 496 -495 386 -934 951 -1151 1481 -20 50 -43 104 -51 120 -75 164 -163 486 -218 795 -44 246 -62 705 -36 930 34 305 55 425 115 655 167 642 452 1159 902 1633 295 311 652 573 1027 752 418 200 841 320 1281 365 83 8 168 17 190 19 81 8 494 -4 630 -19z"/>
    <path d="M3825 5854 c-22 -9 -105 -60 -185 -112 -216 -142 -663 -418 -845 -522 -203 -116 -559 -330 -591 -356 -77 -62 -104 -164 -65 -250 24 -52 78 -98 182 -153 46 -25 212 -117 369 -204 157 -88 319 -178 360 -201 128 -72 611 -351 699 -405 171 -104 238 -99 451 33 79 49 208 127 255 153 32 19 226 132 415 243 380 223 687 400 695 400 16 0 127 84 149 113 46 61 57 100 45 159 -16 74 -81 134 -240 222 -211 118 -357 201 -499 284 -103 60 -591 351 -785 467 -196 118 -238 137 -308 141 -43 3 -74 -1 -102 -12z m142 -126 c15 -7 60 -31 98 -53 284 -167 378 -223 430 -255 60 -38 265 -160 510 -303 72 -41 215 -123 319 -182 308 -173 337 -197 302 -249 -13 -20 -174 -126 -191 -126 -2 0 -39 -21 -82 -46 -43 -26 -94 -56 -113 -67 -19 -10 -93 -53 -163 -95 l-128 -75 -30 29 c-16 15 -28 31 -27 35 3 7 188 153 219 172 14 9 21 9 31 -1 17 -17 48 -15 48 2 0 8 -4 18 -10 21 -19 11 -10 30 25 54 39 26 47 61 14 61 -11 0 -37 -13 -57 -30 -25 -20 -47 -29 -67 -27 -25 2 -30 -1 -28 -19 3 -31 -205 -194 -248 -194 -28 0 -31 -3 -25 -24 5 -20 -3 -31 -47 -69 -39 -33 -57 -43 -68 -36 -26 16 -42 11 -35 -13 3 -13 0 -38 -6 -55 -16 -44 1 -64 29 -34 13 14 26 19 37 15 16 -6 16 -8 -1 -26 -10 -11 -31 -27 -48 -35 -33 -17 -245 -141 -465 -274 -251 -151 -238 -149 -406 -47 -113 68 -251 148 -394 228 -36 20 -156 89 -268 153 -111 64 -204 117 -207 117 -2 0 -57 31 -122 69 -65 37 -200 112 -301 166 -100 54 -184 101 -187 104 -2 4 12 15 31 26 32 17 35 17 52 2 10 -10 24 -17 30 -17 16 0 15 43 0 58 -17 17 19 57 38 41 23 -19 47 -2 40 26 -13 52 17 44 166 -45 35 -20 38 -20 44 -5 8 19 -27 56 -90 95 -33 20 -36 25 -23 35 11 8 12 16 6 28 -11 19 -49 23 -66 6 -12 -12 -56 -3 -49 10 3 4 49 34 103 66 54 32 114 68 133 79 96 58 210 118 209 109 -4 -26 4 -41 28 -52 l28 -13 -28 -24 c-23 -20 -32 -22 -48 -13 -11 6 -27 8 -35 5 -12 -5 -12 -9 -2 -26 11 -17 9 -23 -13 -46 l-26 -25 -50 31 c-51 32 -83 36 -90 13 -3 -7 19 -26 47 -44 l51 -31 -46 -49 c-43 -46 -59 -89 -32 -89 7 0 35 23 62 50 27 28 54 50 60 50 6 0 33 -14 59 -31 81 -51 108 -16 31 40 -25 18 -45 34 -45 37 0 3 20 13 45 24 25 11 45 26 45 34 0 15 45 56 62 56 5 0 17 -18 26 -40 20 -46 29 -50 38 -15 6 23 2 53 -11 87 -4 9 14 30 45 55 l51 42 70 -30 c39 -17 78 -29 87 -27 33 6 16 32 -38 61 -30 15 -56 32 -58 37 -2 4 17 25 42 46 45 38 55 57 36 69 -14 9 -50 -12 -97 -58 -40 -38 -43 -39 -72 -27 -17 7 -31 17 -31 22 0 5 20 21 45 36 75 45 416 261 545 346 158 103 200 118 257 94z m-887 -517 c0 -5 10 -11 22 -15 22 -5 21 -8 -22 -51 -24 -25 -49 -45 -55 -45 -6 0 -26 13 -45 29 l-34 28 49 31 c49 31 85 41 85 23z m-622 -373 c20 -20 14 -28 -19 -26 -27 3 -34 -2 -48 -29 -9 -18 -21 -33 -28 -33 -6 0 -14 -8 -17 -17 -7 -22 -73 -66 -86 -58 -13 8 -13 41 0 65 11 21 103 80 126 80 8 0 22 7 30 15 19 18 26 19 42 3z m2402 -546 c0 -4 12 -14 26 -23 l25 -16 -72 -41 c-69 -41 -73 -42 -91 -25 -19 17 -18 19 34 65 49 44 78 59 78 40z"/>
    <path d="M2150 4190 c-18 -18 -20 -33 -20 -152 0 -118 3 -139 24 -183 23 -50 93 -122 145 -148 87 -45 272 -143 306 -162 22 -12 94 -51 160 -85 373 -195 728 -386 923 -496 188 -106 233 -120 315 -99 45 12 246 108 282 135 6 4 46 26 90 50 120 64 200 107 307 166 53 30 99 54 102 54 3 0 29 14 58 31 29 17 114 63 188 102 74 38 164 87 200 107 60 34 181 99 338 181 85 44 145 98 172 156 20 42 22 60 18 163 -2 90 -7 122 -21 143 -24 37 -68 37 -97 0 -20 -25 -21 -34 -14 -140 l7 -113 -35 -33 c-20 -18 -74 -52 -122 -76 l-86 -42 -28 21 c-15 12 -27 23 -27 25 0 1 52 37 115 79 154 102 147 95 119 117 -19 15 -27 16 -41 6 -10 -7 -71 -49 -136 -94 l-119 -82 -39 24 c-43 27 -69 31 -80 13 -7 -11 31 -51 58 -60 10 -4 9 -10 -6 -26 -10 -12 -16 -28 -13 -36 6 -16 21 -14 64 7 25 11 73 -4 73 -23 0 -5 -24 -22 -52 -36 -29 -15 -129 -68 -223 -119 -93 -50 -260 -141 -370 -200 -110 -59 -308 -167 -440 -239 -232 -127 -242 -131 -300 -131 -53 0 -68 5 -125 41 -110 69 -462 261 -830 452 -91 47 -199 104 -240 127 -41 23 -109 58 -150 79 -173 88 -280 150 -307 178 -27 28 -28 34 -33 157 -4 99 -9 133 -23 154 -21 33 -58 36 -87 7z"/>
    <path d="M5123 3703 c-18 -6 -16 -33 1 -33 19 0 31 19 20 30 -5 4 -15 5 -21 3z"/>
    <path d="M2188 3493 c-43 -49 -50 -83 -46 -203 3 -96 8 -122 25 -151 35 -55 83 -94 173 -140 47 -23 119 -61 160 -84 41 -23 118 -65 170 -92 52 -28 176 -94 275 -148 281 -153 240 -129 672 -374 208 -117 249 -137 299 -146 51 -8 131 18 230 73 76 43 194 106 354 190 58 30 276 146 485 257 209 111 434 230 500 265 161 84 192 106 222 157 29 49 42 157 32 261 -10 100 -61 150 -105 101 -16 -18 -19 -39 -22 -153 -2 -72 -7 -135 -12 -139 -4 -5 -33 8 -65 29 -52 35 -55 39 -37 47 28 13 34 33 16 48 -12 10 -22 9 -50 -5 -32 -15 -37 -15 -57 -1 -31 22 -67 20 -67 -4 0 -11 9 -23 20 -26 11 -3 20 -9 20 -13 0 -4 -39 -32 -87 -62 -49 -29 -95 -59 -103 -67 -13 -10 -21 -10 -44 2 -60 31 -105 7 -50 -26 l25 -15 -91 -59 c-50 -32 -96 -67 -101 -77 -6 -10 -14 -16 -19 -13 -5 3 -27 -3 -49 -14 -39 -21 -40 -21 -83 -1 -24 11 -51 20 -60 20 -27 0 -22 -35 7 -50 14 -7 25 -16 25 -19 0 -3 -31 -27 -70 -54 -63 -43 -73 -47 -110 -41 -41 7 -50 -2 -27 -25 10 -10 6 -17 -17 -34 -44 -34 -96 -87 -96 -99 0 -18 52 2 111 43 57 40 57 40 89 24 38 -20 35 -23 -50 -68 -169 -88 -312 -164 -390 -207 -237 -132 -253 -134 -375 -64 -137 80 -212 123 -252 145 -21 11 -76 42 -123 69 -112 63 -365 202 -515 283 -334 180 -398 215 -500 268 -150 78 -155 85 -155 248 -1 133 -9 161 -47 161 -11 0 -27 -8 -35 -17z m3306 -325 c31 -18 56 -36 56 -39 0 -3 -27 -18 -59 -34 l-59 -28 -27 22 c-30 23 -79 29 -73 9 2 -7 18 -20 36 -28 17 -8 32 -17 32 -21 0 -6 -96 -59 -109 -59 -8 0 -81 68 -81 76 0 1 15 11 33 22 147 91 183 112 189 112 3 0 31 -15 62 -32z m-276 -180 c26 -13 28 -26 6 -35 -9 -3 -21 2 -29 14 -17 24 -47 34 -66 23 -10 -7 -9 -14 4 -34 9 -14 17 -30 17 -35 0 -6 -43 -32 -97 -60 l-96 -50 -39 22 c-21 12 -38 25 -38 28 0 4 18 14 41 23 22 9 57 30 77 46 21 16 64 45 96 64 55 33 61 35 80 21 12 -8 31 -20 44 -27z m-359 -179 c23 -7 40 -17 38 -22 -4 -12 -131 -85 -162 -93 -13 -3 -37 2 -56 12 l-34 17 23 15 c13 9 47 32 75 53 29 20 57 36 63 34 7 -2 31 -9 53 -16z"/>
    <path d="M5791 1084 c-40 -52 -49 -70 -40 -80 19 -23 38 -16 66 27 16 23 36 53 45 68 23 34 23 51 -1 51 -11 0 -39 -26 -70 -66z"/>
    <path d="M4375 611 c-3 -6 7 -35 22 -66 l27 -56 -28 -23 c-32 -25 -31 -64 0 -52 55 21 61 19 85 -31 17 -33 31 -49 47 -51 28 -4 28 12 2 74 -11 26 -19 50 -18 54 2 4 37 35 78 70 41 34 75 67 75 73 0 28 -38 14 -106 -38 -41 -30 -76 -55 -79 -55 -3 0 -18 25 -33 55 -19 39 -33 55 -46 55 -11 0 -22 -4 -26 -9z"/>
    <path d="M5000 511 c0 -23 16 -37 53 -46 23 -6 27 -4 27 14 0 13 -11 26 -30 36 -38 20 -50 19 -50 -4z"/>
  </g>
</svg>