<svg version="1.0" xmlns="http://www.w3.org/2000/svg" width="800.000000" height="800.000000" viewBox="0 0 800.000000 800.000000" preserveAspectRatio="xMidYMid meet">
  <metadata>
    <rdf:RDF xmlns:rdf="http://www.w3.org/1999/02/22-rdf-syntax-ns#" xmlns:rdfs="http://www.w3.org/2000/01/rdf-schema#" xmlns:dc="http://purl.org/dc/elements/1.1/">
      <rdf:Description dc:format="image/svg+xml" dc:Label="1" dc:ContentProducer="001191330110MACRLGPT8B00000" dc:ProduceID="382400371" dc:ReservedCode1="yh2ZUc44Ab2GUmkqgLj1gc+kb3oOU6wP3NUj7HB57kA=" dc:ContentPropagator="001191330110MACRLGPT8B00000" dc:PropagateID="382400371" dc:ReservedCode2="yh2ZUc44Ab2GUmkqgLj1gc+kb3oOU6wP3NUj7HB57kA="/>
    </rdf:RDF>
  </metadata>
  <g transform="translate(187.123703,614.408663) scale(0.053195,-0.053195)" fill="#000000" stroke="none">
    <path d="M5872 7967 c-26 -31 -85 -252 -117 -437 -9 -52 -18 -106 -22 -120 -3 -14 -8 -296 -12 -627 -6 -555 -7 -604 -23 -620 -29 -28 -121 -32 -844 -32 l-681 -1 -7 383 c-17 955 -47 1206 -162 1370 -67 95 -192 104 -253 19 -30 -43 -68 -154 -90 -267 -39 -199 -45 -293 -41 -670 7 -511 4 -815 -6 -825 -5 -5 -311 -10 -681 -12 l-672 -3 -28 28 -28 27 0 553 c0 478 -2 567 -18 663 -37 232 -118 499 -168 552 -19 22 -63 29 -85 14 -45 -30 -109 -209 -141 -392 -16 -93 -18 -173 -19 -685 0 -709 2 -660 -27 -689 -28 -28 -39 -29 -487 -46 -365 -15 -713 -38 -831 -55 -188 -28 -320 -74 -340 -119 -24 -53 61 -135 183 -175 127 -41 209 -45 848 -42 l606 3 27 -27 c14 -15 29 -41 32 -59 3 -17 4 -317 3 -666 l-3 -635 -230 -7 c-126 -4 -439 -11 -695 -16 -488 -9 -491 -9 -561 -58 -83 -57 -105 -180 -46 -258 31 -40 98 -83 155 -99 22 -6 286 -13 662 -18 344 -4 643 -11 665 -16 l40 -8 -4 -795 c-2 -457 -7 -802 -13 -813 -5 -9 -21 -25 -35 -35 -25 -16 -72 -17 -598 -18 -611 0 -715 -7 -871 -55 -125 -39 -154 -61 -154 -120 0 -110 167 -148 646 -149 154 0 438 -3 629 -7 l349 -6 22 -24 23 -25 4 -646 c4 -678 4 -679 52 -861 28 -110 83 -199 134 -221 24 -9 34 -9 58 4 40 20 46 29 87 128 93 225 106 359 106 1053 l-1 550 28 24 27 24 656 -8 c360 -4 658 -9 661 -11 3 -2 9 -178 13 -391 9 -503 23 -868 37 -968 31 -209 118 -333 242 -343 46 -3 58 0 102 30 56 38 95 97 124 191 40 130 44 236 37 869 -5 432 -4 598 4 603 6 4 349 4 762 0 743 -8 750 -8 774 -29 l25 -21 4 -380 c6 -437 19 -768 36 -876 26 -171 89 -383 136 -456 17 -26 64 -38 91 -24 31 17 91 203 117 366 23 139 16 457 -26 1146 -13 218 -8 241 59 258 20 6 327 15 682 21 355 6 683 15 730 21 112 13 306 56 350 77 31 15 35 22 38 59 3 40 1 43 -35 61 -72 37 -216 82 -337 107 -160 32 -367 44 -938 53 l-467 7 -29 28 -29 28 -7 239 c-4 132 -4 480 0 774 l7 534 71 6 c39 4 341 11 671 15 330 5 609 11 620 14 11 3 49 11 85 18 92 17 164 54 196 101 48 69 32 169 -38 235 -30 28 -121 70 -184 84 -31 7 -294 14 -717 18 -389 4 -671 11 -676 17 -12 14 -31 1247 -19 1290 6 22 21 43 41 55 31 20 41 20 482 14 649 -9 901 11 1097 86 88 34 128 72 128 123 0 66 -59 104 -214 136 -146 31 -321 40 -765 41 -229 0 -485 4 -568 7 -149 7 -153 8 -180 35 l-28 27 -6 593 c-8 660 -18 815 -70 1014 -37 144 -54 177 -95 181 -17 2 -36 -3 -42 -11z m-1947 -186 c50 -99 78 -251 95 -521 32 -521 38 -2814 9 -3930 -6 -245 -12 -960 -13 -1590 -1 -630 -5 -1163 -10 -1185 -28 -149 -48 -199 -91 -233 -49 -39 -109 10 -140 113 -33 110 -47 426 -66 1520 -21 1198 -17 1751 23 3460 7 275 13 831 13 1235 1 758 3 790 44 996 26 127 52 184 85 184 21 0 31 -10 51 -49z m-1932 -78 c25 -89 54 -218 74 -328 16 -89 18 -163 18 -655 l0 -555 25 -45 c34 -61 104 -107 178 -116 31 -4 342 -4 690 0 l633 8 -3 -72 -3 -72 -721 -1 -721 -2 -37 -29 c-21 -16 -48 -50 -59 -75 -20 -43 -22 -70 -28 -386 -4 -187 -8 -487 -8 -667 l-1 -328 -60 0 -60 0 0 653 c0 434 -4 665 -11 692 -16 62 -56 111 -106 135 -46 21 -51 22 -662 19 -539 -2 -628 0 -714 15 -102 17 -165 40 -137 49 104 35 417 61 950 82 228 9 444 20 479 25 75 10 123 43 161 111 l25 44 -3 535 c-2 413 1 569 12 685 14 148 51 335 66 335 4 0 15 -26 23 -57z m3941 -194 c9 -98 16 -366 20 -737 5 -463 9 -589 20 -615 21 -51 72 -103 124 -129 47 -22 48 -22 687 -30 352 -4 656 -10 675 -13 136 -23 210 -39 210 -46 0 -4 -19 -13 -42 -19 -24 -6 -50 -13 -58 -16 -8 -3 -51 -13 -95 -22 -66 -13 -190 -17 -720 -21 -708 -7 -666 -2 -731 -73 -66 -71 -67 -76 -60 -538 3 -228 9 -520 12 -648 l7 -233 -59 3 -59 3 -7 600 c-3 330 -8 627 -11 660 -8 103 -71 191 -154 214 -24 7 -263 11 -668 12 -346 1 -679 4 -739 8 l-109 6 0 56 c0 31 4 62 7 68 5 8 196 11 669 11 364 1 708 5 765 9 114 10 149 26 193 89 l24 35 6 591 c6 590 11 681 47 836 6 25 14 58 17 74 3 15 8 26 11 24 2 -3 11 -74 18 -159z m-2333 -2226 c-2 -252 -7 -561 -10 -688 l-6 -230 -637 1 c-351 1 -671 5 -713 9 l-76 7 3 658 3 658 25 27 25 27 695 -5 695 -5 -4 -459z m2094 425 c32 -37 33 -66 40 -754 l6 -582 -776 -7 c-442 -4 -779 -4 -783 1 -4 5 -6 316 -4 692 l3 682 745 -2 746 -3 23 -27z m-2736 -1467 l624 -6 -2 -95 c-1 -52 -5 -98 -9 -102 -4 -4 -304 -9 -667 -12 -363 -4 -739 -9 -837 -12 -110 -3 -217 -1 -285 7 -66 7 -344 14 -718 18 -600 6 -611 6 -657 28 -60 27 -79 62 -57 101 31 56 29 55 624 64 303 5 613 12 690 17 77 5 259 7 405 4 146 -3 546 -8 889 -12z m4447 -12 c103 -12 165 -33 199 -67 59 -59 1 -112 -145 -133 -41 -5 -347 -14 -680 -20 -333 -5 -661 -13 -730 -17 -124 -8 -322 -1 -495 17 -49 5 -381 13 -737 17 l-648 7 0 103 0 104 753 2 c1175 4 2394 -2 2483 -13z m-3834 -1141 c2 -453 1 -827 -3 -832 -5 -5 -283 -7 -651 -4 -601 4 -645 6 -671 23 -52 34 -57 56 -57 272 0 109 -5 453 -11 766 -7 312 -10 569 -7 572 14 14 300 22 819 24 l577 1 4 -822z m1943 801 c66 -5 134 -13 150 -18 l30 -8 -3 -569 c-2 -313 1 -654 7 -759 5 -104 7 -203 4 -218 -4 -18 -18 -36 -37 -48 -30 -18 -62 -19 -785 -19 l-753 0 6 108 c3 59 11 427 17 817 6 391 12 715 14 721 4 15 1167 9 1350 -7z m-3468 -79 c1 -41 7 -390 13 -775 7 -482 15 -712 23 -740 15 -52 90 -129 142 -146 31 -11 185 -14 698 -17 l657 -3 0 -60 0 -60 -667 7 c-658 7 -669 7 -714 -13 -53 -23 -92 -70 -108 -127 -7 -27 -8 -200 -4 -545 6 -518 1 -655 -32 -814 -20 -94 -52 -200 -69 -222 -12 -16 -16 -10 -36 56 -50 166 -53 211 -57 888 -4 601 -5 636 -23 670 -28 52 -41 66 -80 87 -43 23 -284 32 -889 33 -482 1 -682 18 -561 46 135 32 265 38 800 37 583 -2 606 0 679 55 71 54 68 18 75 906 3 440 9 803 12 808 3 5 35 8 72 6 l67 -3 2 -74z m3904 -653 c0 -386 4 -739 8 -784 11 -112 43 -167 123 -207 l58 -28 587 -8 c524 -7 601 -10 708 -29 66 -11 147 -29 180 -39 l60 -18 -95 -13 c-173 -22 -359 -30 -915 -36 -320 -4 -567 -11 -590 -17 -27 -6 -56 -26 -87 -58 -61 -63 -64 -88 -50 -365 30 -560 44 -897 39 -970 -5 -69 -17 -143 -44 -255 l-6 -25 -9 30 c-5 17 -18 71 -29 120 -39 178 -50 339 -55 850 -6 543 -9 568 -66 625 -58 57 -73 60 -341 60 -134 0 -481 3 -771 7 l-527 6 3 61 3 61 770 5 c550 4 777 8 796 17 39 17 86 60 105 96 16 30 17 93 15 819 -2 432 -1 790 2 795 3 4 32 6 66 5 l61 -4 1 -701z"/>
  </g>
</svg>