<svg version="1.0" xmlns="http://www.w3.org/2000/svg" width="800.000000" height="800.000000" viewBox="0 0 800.000000 800.000000" preserveAspectRatio="xMidYMid meet">
  <metadata>
    <rdf:RDF xmlns:rdf="http://www.w3.org/1999/02/22-rdf-syntax-ns#" xmlns:rdfs="http://www.w3.org/2000/01/rdf-schema#" xmlns:dc="http://purl.org/dc/elements/1.1/">
      <rdf:Description dc:format="image/svg+xml" dc:Label="1" dc:ContentProducer="001191330110MACRLGPT8B00000" dc:ProduceID="382399536" dc:ReservedCode1="kkogrMXQS0tpTZOlW7a+TCwgEuBz7oMOoWhpVniUFTk=" dc:ContentPropagator="001191330110MACRLGPT8B00000" dc:PropagateID="382399536" dc:ReservedCode2="kkogrMXQS0tpTZOlW7a+TCwgEuBz7oMOoWhpVniUFTk="/>
    </rdf:RDF>
  </metadata>
  <g transform="translate(180.202015,622.813816) scale(0.055318,-0.055318)" fill="#000000" stroke="none">
    <path d="M6325 7820 c-85 -10 -111 -27 -211 -137 -276 -303 -540 -578 -1164 -1208 -674 -682 -718 -728 -745 -786 l-25 -54 0 -330 c0 -204 4 -345 11 -369 13 -48 81 -117 134 -135 56 -19 489 -27 582 -12 95 17 214 77 303 154 111 96 610 606 1059 1082 140 149 316 333 391 410 398 409 399 411 437 492 32 69 37 89 41 179 5 119 -7 186 -51 273 -87 174 -329 372 -517 424 -71 19 -169 26 -245 17z m232 -150 c126 -44 284 -166 374 -286 92 -125 104 -287 32 -428 -22 -43 -52 -76 -358 -392 -148 -154 -349 -362 -445 -464 -576 -608 -1021 -1055 -1108 -1112 -105 -70 -125 -73 -412 -70 -145 1 -266 7 -281 13 -46 18 -49 39 -49 372 0 287 2 314 19 343 18 30 232 249 961 989 468 473 605 615 824 853 93 100 176 187 185 192 31 18 197 12 258 -10z"/>
    <path d="M6387 7500 c-57 -15 -90 -35 -130 -79 -58 -64 -72 -144 -37 -216 28 -57 264 -289 320 -314 61 -28 150 -28 206 0 119 57 177 211 124 327 -27 60 -194 223 -264 257 -62 30 -155 41 -219 25z m177 -151 c42 -30 110 -93 159 -147 30 -34 37 -50 37 -83 0 -35 -6 -48 -39 -80 -32 -32 -45 -39 -79 -39 -49 0 -96 35 -224 167 -93 96 -103 118 -72 162 39 55 153 66 218 20z"/>
    <path d="M5910 7045 c-47 -21 -54 -28 -207 -202 -73 -84 -173 -195 -221 -245 -48 -51 -214 -226 -367 -388 -557 -588 -575 -608 -607 -677 -28 -59 -30 -71 -26 -146 5 -97 32 -158 98 -224 65 -65 119 -87 221 -91 97 -4 148 12 219 68 32 25 511 520 824 850 45 47 178 185 296 308 118 123 223 240 232 260 21 45 23 128 4 174 -33 77 -211 269 -282 303 -52 25 -139 30 -184 10z m123 -129 c39 -16 205 -189 223 -233 10 -24 11 -39 3 -60 -5 -15 -90 -109 -187 -208 -98 -99 -308 -317 -467 -485 -464 -488 -663 -687 -709 -710 -133 -64 -286 32 -286 180 0 58 22 106 76 165 38 42 471 498 659 695 183 191 335 358 459 500 112 129 156 170 184 170 7 0 27 -6 45 -14z"/>
    <path d="M1435 7626 c-136 -23 -221 -59 -318 -133 -130 -100 -225 -270 -256 -458 -18 -108 -21 -273 -32 -1565 -30 -3713 -29 -4307 5 -4502 38 -209 111 -355 239 -474 160 -148 332 -215 644 -250 132 -14 247 -15 1063 -8 503 4 1383 8 1955 8 957 1 1047 2 1129 19 434 87 731 349 820 727 14 58 30 152 36 210 19 188 6 1659 -25 2935 -14 607 -12 850 11 970 4 22 -1 38 -16 58 -37 46 -92 31 -110 -31 -28 -99 -32 -389 -15 -977 21 -726 33 -2913 16 -3021 -56 -360 -265 -602 -612 -708 -114 -35 -236 -45 -520 -46 l-235 0 -76 73 c-249 240 -318 295 -318 254 0 -10 123 -131 282 -276 27 -24 48 -47 48 -52 0 -5 -20 -9 -45 -9 -41 0 -78 21 -125 70 -3 3 -78 72 -167 153 -90 82 -163 152 -163 157 0 5 25 30 55 56 53 46 71 84 41 84 -8 0 -40 -23 -71 -52 l-57 -51 -28 16 c-51 30 -69 13 -29 -29 l20 -21 -43 -37 c-24 -21 -43 -43 -43 -50 0 -7 -18 -32 -39 -56 l-38 -42 -35 33 c-20 19 -51 50 -70 69 l-35 35 51 45 c28 25 51 51 51 58 0 24 -33 11 -84 -32 l-52 -44 -29 24 c-17 13 -33 24 -37 24 -15 0 -8 -27 12 -45 28 -26 26 -35 -23 -83 l-44 -43 -44 37 c-24 20 -47 41 -51 48 -4 6 25 44 71 91 83 85 96 106 78 124 -8 8 -33 -13 -95 -79 -46 -50 -89 -90 -96 -90 -7 0 -22 11 -35 24 -19 20 -20 27 -10 50 15 33 5 45 -19 23 -23 -21 -36 -21 -52 -2 -12 14 -50 21 -50 9 0 -3 9 -19 21 -35 l21 -29 -42 -50 c-23 -28 -44 -50 -47 -50 -3 0 -23 16 -46 35 -25 22 -44 32 -50 26 -11 -11 11 -46 42 -67 27 -19 27 -48 0 -73 -15 -14 -17 -21 -8 -27 8 -4 21 3 36 20 l23 27 97 -78 c54 -42 100 -78 102 -80 11 -8 -67 -81 -87 -82 -26 -1 -167 119 -178 151 -3 10 -9 16 -14 13 -5 -3 -57 37 -116 90 -59 52 -110 95 -115 95 -19 0 -17 -21 5 -47 13 -16 92 -89 175 -163 83 -73 150 -135 148 -136 -9 -10 -1782 -23 -1943 -15 -360 19 -572 92 -714 248 -141 154 -175 286 -191 740 -10 299 -9 574 16 3538 18 2075 17 2065 44 2170 68 260 227 399 501 436 108 15 2579 5 2775 -11 72 -6 161 -11 199 -13 64 -2 70 0 89 25 17 23 18 30 7 57 -7 17 -20 33 -30 36 -10 3 -90 13 -177 21 -226 22 -2806 30 -2928 10z m2493 -6895 c12 -11 22 -23 22 -27 0 -4 -20 -28 -44 -54 l-44 -47 -26 20 c-14 10 -26 24 -26 30 0 13 78 97 89 97 3 -1 16 -9 29 -19z m844 -157 c84 -78 167 -153 183 -167 l30 -26 -80 -1 -81 0 -142 138 -142 138 33 32 c17 18 35 31 39 30 4 -2 76 -66 160 -144z m-728 48 l47 -43 -37 -42 c-21 -23 -42 -44 -46 -45 -5 -2 -33 17 -63 43 l-55 47 47 43 c27 24 51 43 54 42 4 -1 28 -21 53 -45z m312 -121 c-46 -66 -44 -66 -126 9 l-75 69 48 47 48 46 66 -65 67 -66 -28 -40z m289 -6 l120 -114 -83 -1 -84 0 -54 58 c-30 31 -64 67 -76 80 l-22 22 34 35 c19 19 36 35 39 35 4 0 60 -52 126 -115z m-433 -27 c91 -82 90 -86 -26 -87 -68 -1 -69 -1 -107 40 l-37 40 36 39 c21 22 41 39 46 40 4 0 44 -32 88 -72z m265 -20 c29 -29 53 -56 53 -60 0 -4 -40 -8 -89 -8 -114 0 -129 13 -77 67 20 21 36 41 36 46 0 19 29 2 77 -45z m-446 -38 c31 -17 22 -30 -21 -30 -41 0 -49 7 -28 28 15 15 24 15 49 2z"/>
    <path d="M1653 7175 c-15 -20 -44 -55 -64 -78 -186 -214 -259 -305 -259 -319 0 -34 27 -18 86 52 32 38 64 70 69 70 12 0 125 -112 125 -123 0 -5 -19 -31 -42 -58 -40 -48 -42 -49 -65 -34 -13 9 -28 13 -33 10 -15 -9 -12 -35 5 -41 8 -4 15 -10 15 -15 0 -5 -38 -49 -85 -98 -81 -86 -102 -121 -71 -121 7 0 19 7 26 15 7 8 16 15 20 15 5 0 44 -33 87 -74 43 -40 93 -81 111 -90 l33 -17 -13 23 c-30 53 -146 169 -180 180 -14 5 90 127 107 128 6 0 28 -15 50 -34 l40 -34 -49 -56 c-28 -33 -46 -62 -42 -71 8 -22 29 -9 76 46 23 28 48 49 55 47 8 -2 61 -43 119 -91 58 -49 111 -85 116 -82 24 15 4 40 -95 122 -58 47 -105 91 -105 98 0 11 61 75 71 75 3 0 23 -16 45 -35 68 -61 91 -35 29 34 -19 21 -35 41 -35 43 0 15 78 88 93 88 23 0 21 16 -5 44 -13 13 -39 40 -57 60 l-35 36 39 40 c21 22 44 40 50 40 5 0 50 -41 99 -90 50 -50 96 -90 103 -90 26 0 12 31 -37 82 -27 28 -49 52 -47 52 1 1 21 19 45 41 l42 39 39 -38 c27 -26 45 -37 56 -32 21 8 18 15 -26 62 -65 72 -60 71 -126 10 l-60 -55 -28 29 -29 30 28 29 c27 29 28 51 2 51 -7 0 -21 -9 -31 -20 -10 -11 -23 -20 -30 -20 -6 0 -37 27 -69 60 -32 33 -62 60 -67 60 -14 0 -24 -31 -13 -39 5 -4 34 -32 64 -64 l54 -57 -44 -45 -44 -45 -63 61 c-57 55 -83 66 -83 36 0 -6 26 -37 57 -69 l57 -58 -39 -40 c-21 -22 -42 -40 -45 -40 -4 0 -36 30 -72 66 l-67 66 33 36 c73 82 156 196 156 213 0 28 -15 23 -47 -16z m152 -359 c19 -18 35 -37 35 -42 0 -6 -17 -26 -37 -46 l-38 -36 -44 39 -44 40 38 39 c22 22 43 40 48 40 4 0 24 -15 42 -34z m-77 -156 c1 -3 -17 -25 -41 -48 l-43 -42 -42 32 c-23 18 -42 35 -42 39 0 3 18 27 41 53 l41 46 42 -37 c22 -20 42 -39 44 -43z"/>
    <path d="M1380 6194 c-108 -106 -128 -134 -92 -134 22 1 235 205 230 221 -10 30 -36 14 -138 -87z"/>
    <path d="M2450 4613 c-231 -11 -524 -35 -564 -47 -235 -71 -229 -350 9 -411 17 -4 300 -7 630 -6 681 2 669 0 755 78 57 51 74 94 68 168 -8 91 -73 158 -183 190 -99 28 -430 41 -715 28z m537 -134 c95 -7 139 -16 173 -32 79 -39 86 -101 17 -143 -30 -18 -67 -19 -597 -26 -352 -5 -589 -5 -629 1 -73 11 -111 39 -111 81 0 79 50 89 540 119 202 12 463 12 607 0z"/>
    <path d="M2645 3269 c-490 -15 -708 -28 -761 -44 -111 -33 -177 -109 -178 -204 -1 -99 63 -177 164 -200 63 -15 3731 -15 3798 -1 89 20 161 105 162 191 0 53 -43 131 -93 166 -72 51 -122 62 -341 73 -536 27 -2133 38 -2751 19z m2752 -148 c188 -11 238 -20 271 -51 26 -25 38 -67 25 -89 -27 -44 36 -43 -1923 -42 -2017 1 -1921 -2 -1935 53 -10 41 11 77 58 98 43 19 213 32 557 44 226 7 2791 -4 2947 -13z"/>
    <path d="M2605 1859 c-439 -5 -716 -12 -744 -19 -93 -23 -151 -100 -151 -201 0 -106 79 -187 202 -207 38 -7 502 -16 1174 -23 1259 -14 2453 -1 2562 27 178 47 241 233 119 355 -75 74 -3 70 -1302 74 -638 2 -1475 -1 -1860 -6z m2720 -126 c317 -6 317 -6 346 -31 66 -55 20 -135 -83 -146 -178 -18 -1144 -29 -2083 -22 -1327 10 -1579 16 -1623 39 -42 23 -59 58 -46 95 20 56 9 55 774 62 1030 9 2350 11 2715 3z"/>
    <path d="M5844 918 c-5 -7 19 -36 65 -77 l72 -66 -21 -42 c-11 -23 -20 -48 -20 -55 0 -7 -4 -19 -9 -27 -7 -11 -22 -4 -70 35 -34 27 -61 52 -61 56 0 4 -13 14 -29 23 -36 18 -49 5 -31 -31 11 -19 10 -39 -3 -111 -24 -124 -26 -198 -7 -198 10 0 18 16 24 45 5 25 11 47 12 49 2 2 26 -17 55 -43 28 -25 57 -46 64 -46 8 0 19 17 26 38 6 20 18 50 26 65 l14 28 35 -30 c37 -33 74 -41 74 -16 0 8 -9 20 -20 27 -11 7 -20 18 -20 23 0 11 81 95 91 95 4 0 26 -16 50 -35 77 -61 96 -38 27 32 l-42 42 57 60 c31 33 57 64 57 70 0 26 -39 7 -91 -45 l-57 -57 -89 75 c-98 83 -157 128 -166 128 -3 0 -9 -5 -13 -12z m209 -196 l28 -29 -50 -46 c-78 -73 -84 -64 -39 51 11 28 23 52 27 52 4 0 19 -13 34 -28z m-198 -88 l54 -45 -17 -45 c-9 -24 -20 -44 -25 -44 -5 0 -27 14 -48 31 -33 26 -39 37 -39 67 0 39 9 82 17 82 3 0 29 -21 58 -46z"/>
    <path d="M5390 867 c0 -16 161 -177 178 -177 27 0 8 32 -64 109 -70 75 -114 101 -114 68z"/>
    <path d="M5360 790 c-8 -5 -27 -6 -43 -3 -25 5 -29 3 -24 -13 5 -14 -4 -26 -34 -46 -21 -16 -44 -28 -49 -28 -5 0 -25 14 -45 31 -20 18 -41 29 -50 25 -23 -8 -18 -21 21 -55 35 -31 40 -61 12 -61 -8 0 -47 29 -87 65 -41 36 -77 65 -81 65 -5 0 -10 -7 -14 -15 -5 -13 24 -42 189 -189 60 -53 87 -45 45 14 -17 23 -18 30 -6 39 11 9 28 0 80 -44 36 -31 66 -60 66 -64 0 -4 -18 -24 -40 -46 -59 -58 -30 -81 33 -25 19 16 38 30 43 30 4 0 25 -16 45 -36 35 -34 59 -38 59 -10 0 6 -16 27 -35 46 -19 19 -35 38 -35 43 0 12 63 87 74 87 4 0 24 -14 43 -30 35 -31 63 -39 63 -17 0 15 -90 106 -150 150 -35 26 -45 40 -45 62 0 31 -12 40 -35 25z m38 -113 l52 -53 -39 -38 -40 -39 -65 53 c-36 29 -63 57 -60 62 7 12 85 68 93 68 4 0 30 -24 59 -53z"/>
  </g>
</svg>