<svg version="1.0" xmlns="http://www.w3.org/2000/svg" width="800.000000" height="800.000000" viewBox="0 0 800.000000 800.000000" preserveAspectRatio="xMidYMid meet">
  <metadata>
    <rdf:RDF xmlns:rdf="http://www.w3.org/1999/02/22-rdf-syntax-ns#" xmlns:rdfs="http://www.w3.org/2000/01/rdf-schema#" xmlns:dc="http://purl.org/dc/elements/1.1/">
      <rdf:Description dc:format="image/svg+xml" dc:Label="1" dc:ContentProducer="001191330110MACRLGPT8B00000" dc:ProduceID="382401403" dc:ReservedCode1="IK6dIf2eL+O00polAA/g+pu9jeabBmo5Uqr8ehFFR7o=" dc:ContentPropagator="001191330110MACRLGPT8B00000" dc:PropagateID="382401403" dc:ReservedCode2="IK6dIf2eL+O00polAA/g+pu9jeabBmo5Uqr8ehFFR7o="/>
    </rdf:RDF>
  </metadata>
  <g transform="translate(171.377192,637.534464) scale(0.058146,-0.058146)" fill="#000000" stroke="none">
    <path d="M4135 7530 c-185 -9 -325 -24 -520 -56 -427 -71 -887 -239 -1170 -429 -188 -125 -222 -160 -586 -590 -517 -610 -1038 -1237 -1213 -1460 -284 -362 -325 -440 -326 -615 0 -135 82 -744 211 -1565 79 -507 82 -518 129 -584 20 -27 49 -51 78 -64 l47 -22 1555 -3 c1045 -2 1571 1 1604 8 105 22 136 70 161 245 9 66 34 224 55 350 21 127 46 280 55 340 9 61 23 146 31 190 47 268 134 946 134 1048 0 140 -42 234 -198 447 -304 412 -692 891 -1037 1280 -184 207 -321 375 -546 668 -52 68 -102 134 -113 147 -10 12 -15 28 -12 33 4 6 44 34 90 61 487 295 1169 455 1866 438 250 -6 449 -24 620 -57 467 -88 938 -320 1297 -638 306 -272 527 -554 702 -897 37 -71 74 -148 83 -170 56 -135 100 -263 149 -435 32 -113 74 -351 101 -575 26 -217 32 -686 10 -845 -40 -300 -99 -558 -180 -800 -152 -451 -419 -851 -857 -1283 -180 -179 -354 -341 -359 -336 -2 2 -21 38 -42 79 -52 101 -155 204 -246 248 -174 83 -391 53 -555 -77 -104 -82 -194 -243 -213 -383 -22 -156 21 -292 129 -410 70 -76 130 -117 223 -152 230 -87 511 1 647 203 51 76 72 140 78 244 5 79 8 90 32 108 51 40 268 246 426 404 439 438 703 836 860 1295 92 269 128 419 175 727 68 447 31 1081 -90 1563 -132 522 -377 968 -755 1376 -217 234 -563 496 -842 637 -86 44 -333 143 -428 171 -49 15 -103 32 -120 37 -139 42 -440 84 -707 99 -187 10 -208 10 -433 0z m-1825 -1397 c0 -350 -7 -785 -15 -1003 -8 -212 -15 -390 -15 -396 0 -6 -18 -14 -41 -18 -110 -18 -228 -119 -292 -249 -91 -189 -86 -359 17 -509 73 -107 171 -170 298 -189 233 -37 463 115 532 350 65 221 -101 519 -327 586 l-42 12 0 114 c0 63 6 299 14 524 7 233 12 609 10 873 -2 254 -2 462 1 461 3 0 39 -46 80 -102 91 -123 302 -387 381 -477 458 -521 734 -855 1057 -1282 246 -325 272 -374 272 -520 0 -142 -78 -708 -196 -1418 -41 -250 -67 -413 -78 -493 -7 -48 -19 -94 -27 -102 -12 -12 -223 -15 -1424 -21 -775 -4 -1477 -4 -1559 1 -210 10 -196 -6 -245 290 -81 483 -111 685 -206 1365 -39 283 -56 449 -50 496 9 72 49 151 144 282 88 122 302 391 466 587 56 66 193 230 305 364 706 844 917 1091 930 1091 6 0 10 -226 10 -617z m156 -1576 c60 -30 141 -116 175 -184 19 -40 24 -64 24 -138 0 -76 -4 -97 -24 -138 -60 -117 -183 -197 -302 -197 -96 0 -153 23 -220 89 -75 74 -103 146 -96 246 10 152 104 300 216 342 56 21 165 12 227 -20z m3175 -2985 c81 -39 150 -111 203 -212 l49 -92 -7 -106 c-10 -140 -32 -198 -103 -269 -64 -64 -151 -108 -242 -124 -122 -22 -278 37 -375 141 -199 216 -65 598 239 676 71 19 182 12 236 -14z"/>
    <path d="M1494 5475 c-53 -60 -58 -63 -78 -50 -25 18 -76 20 -76 3 0 -7 14 -25 32 -39 l32 -26 -39 -49 c-22 -27 -42 -53 -47 -58 -4 -5 -25 3 -47 19 -38 25 -71 28 -71 6 0 -5 17 -25 39 -42 33 -28 37 -36 29 -54 -5 -11 -19 -25 -31 -30 -12 -6 -24 -21 -25 -35 -2 -13 -18 -44 -34 -67 -26 -36 -34 -41 -50 -32 -40 21 -63 -8 -32 -42 15 -16 9 -27 -80 -151 -96 -133 -109 -161 -81 -172 16 -6 26 5 145 171 80 111 80 112 106 98 15 -7 33 -11 40 -8 21 8 17 44 -6 50 -28 7 -25 29 11 74 l30 38 66 -40 c36 -22 72 -38 79 -35 29 11 12 38 -51 77 -36 23 -65 44 -65 47 0 3 7 14 17 24 14 16 18 16 32 4 49 -43 93 -15 45 29 -31 29 -28 44 25 105 35 40 41 44 60 33 51 -32 88 7 39 40 l-23 15 20 25 c11 14 37 46 58 71 21 25 36 50 32 56 -15 24 -47 6 -101 -55z"/>
    <path d="M3703 2666 c-10 -13 -45 -71 -78 -129 -33 -59 -64 -107 -68 -107 -16 0 -107 43 -107 50 0 5 16 36 35 70 37 65 42 85 24 96 -15 9 -38 -16 -73 -83 -33 -62 -40 -65 -113 -48 -30 7 -33 5 -33 -14 0 -16 11 -27 39 -40 l40 -17 -25 -43 c-30 -54 -31 -73 -2 -69 15 2 31 19 47 46 21 40 26 43 53 38 16 -3 61 -20 100 -37 40 -17 86 -32 102 -33 44 -2 45 26 2 47 -37 17 -39 32 -11 67 32 41 115 192 115 210 0 27 -24 25 -47 -4z"/>
    <path d="M3234 2588 c-31 -46 -61 -87 -65 -92 -5 -5 -27 1 -53 14 -40 22 -43 26 -33 47 16 37 -5 51 -40 27 -15 -10 -35 -18 -43 -19 -9 0 -15 -10 -15 -25 -1 -37 -25 -79 -49 -82 -18 -3 -21 -11 -23 -50 -2 -50 7 -59 34 -33 10 11 25 14 49 9 30 -5 34 -4 34 14 0 12 -7 25 -16 30 -13 7 -13 13 -3 35 7 15 18 27 26 27 15 0 93 -38 93 -45 0 -3 -16 -30 -36 -61 -19 -30 -33 -62 -30 -70 10 -26 36 -14 62 29 48 77 52 80 84 57 16 -11 35 -20 44 -20 25 0 33 32 12 44 -65 39 -65 35 2 129 65 89 75 117 43 117 -13 0 -39 -27 -77 -82z"/>
    <path d="M2468 4293 c-13 -12 -20 -14 -30 -5 -8 6 -19 7 -28 2 -11 -7 -12 -13 -2 -35 11 -25 10 -29 -15 -51 -15 -13 -33 -24 -40 -24 -6 0 -15 -4 -18 -10 -8 -13 24 -60 41 -60 7 0 28 -9 45 -19 57 -35 83 1 29 39 -25 18 -28 25 -19 36 17 21 34 17 47 -11 6 -14 18 -25 27 -25 17 0 20 32 4 61 -9 17 -6 21 21 31 24 8 30 16 28 32 -2 16 -9 21 -31 19 -24 -2 -27 1 -22 18 8 24 -14 26 -37 2z"/>
    <path d="M5380 1375 c-62 -63 -83 -73 -106 -51 -33 34 -56 4 -29 -38 16 -24 15 -25 -8 -41 -40 -26 -41 -44 -2 -90 19 -24 35 -47 35 -51 0 -4 -18 -26 -40 -50 -44 -48 -48 -59 -25 -68 10 -3 33 10 61 36 l44 41 58 -55 c31 -30 64 -57 72 -60 13 -5 13 -9 -1 -34 -9 -16 -14 -35 -12 -41 8 -22 43 -14 55 12 14 30 22 31 55 5 30 -24 73 -27 73 -5 0 8 -18 27 -40 41 -45 30 -44 38 13 93 33 31 35 32 42 12 9 -30 33 -51 50 -45 23 9 18 41 -11 67 -16 15 -22 27 -16 31 6 3 23 -9 38 -29 49 -65 83 -36 35 31 -17 25 -31 47 -31 50 0 2 19 25 41 49 25 28 39 51 35 60 -9 24 -26 18 -73 -29 l-44 -44 -25 34 c-28 36 -64 46 -64 17 0 -9 12 -34 27 -55 l26 -38 -24 -28 c-59 -68 -114 -122 -124 -122 -13 0 -115 115 -115 130 0 6 63 74 140 152 77 78 140 145 140 150 0 20 -51 5 -92 -26 -24 -19 -53 -34 -64 -33 -14 2 -20 -5 -22 -29 -2 -20 -16 -44 -42 -69 l-39 -38 -20 24 -21 24 38 33 c20 18 54 45 75 59 27 19 37 32 35 47 -6 40 -40 30 -98 -29z m-53 -212 c-16 -16 -18 -15 -42 7 -24 22 -24 24 -8 42 16 18 18 18 42 -7 24 -23 24 -26 8 -42z"/>
    <path d="M3394 7145 c-4 -8 -4 -25 -1 -36 5 -17 -4 -25 -51 -46 -31 -15 -92 -46 -136 -71 -65 -37 -82 -43 -97 -34 -20 13 -33 1 -34 -28 0 -8 -38 -41 -85 -73 -47 -32 -85 -63 -85 -70 0 -30 46 -12 173 66 176 109 332 191 341 180 5 -4 18 -36 31 -70 17 -47 27 -63 41 -63 25 0 24 26 -1 92 -11 29 -20 63 -20 75 0 29 -38 93 -56 93 -8 0 -17 -7 -20 -15z"/>
    <path d="M3603 7081 c9 -41 61 -125 80 -129 26 -5 21 30 -13 98 -23 45 -36 60 -51 60 -18 0 -21 -4 -16 -29z"/>
    <path d="M3287 6954 c-14 -14 -6 -48 25 -111 31 -64 31 -66 12 -79 -50 -37 -56 -45 -44 -59 14 -17 9 -19 168 73 61 36 112 71 112 79 0 36 -60 19 -142 -41 -15 -11 -31 -16 -35 -12 -5 4 -21 39 -38 78 -29 69 -43 86 -58 72z"/>
    <path d="M2500 1839 c-1759 -9 -1845 -15 -1908 -127 -23 -41 -23 -43 -23 -409 1 -439 6 -513 35 -556 30 -44 79 -74 139 -86 63 -12 1575 -27 2517 -24 585 1 681 3 718 17 69 25 99 52 134 124 l33 67 0 405 c-1 353 -3 412 -18 461 -29 97 -100 141 -222 137 -33 -1 -665 -5 -1405 -9z m1484 -148 c15 -16 19 -54 28 -228 12 -245 6 -577 -10 -613 -20 -44 -40 -62 -78 -70 -57 -13 -1211 -14 -1874 -1 -322 6 -745 11 -941 11 -325 0 -359 2 -377 17 -20 17 -20 32 -25 425 -3 291 -1 410 7 417 45 36 282 44 1626 50 707 4 1362 8 1456 9 157 2 172 0 188 -17z"/>
    <path d="M1082 1520 c-89 -21 -142 -148 -142 -338 0 -113 58 -210 138 -231 23 -6 512 -11 1308 -12 l1271 -2 46 22 c71 34 89 73 95 196 8 171 -28 299 -96 350 -27 20 -44 20 -1307 22 -704 0 -1295 -2 -1313 -7z m2563 -163 c10 -25 15 -75 16 -149 1 -97 -1 -113 -17 -125 -15 -11 -240 -13 -1277 -11 -1245 3 -1259 3 -1274 23 -21 28 -14 226 10 271 l16 31 1255 -1 1256 -1 15 -38z"/>
  </g>
</svg>