<svg version="1.0" xmlns="http://www.w3.org/2000/svg" width="800.000000" height="800.000000" viewBox="0 0 800.000000 800.000000" preserveAspectRatio="xMidYMid meet">
  <metadata>
    <rdf:RDF xmlns:rdf="http://www.w3.org/1999/02/22-rdf-syntax-ns#" xmlns:rdfs="http://www.w3.org/2000/01/rdf-schema#" xmlns:dc="http://purl.org/dc/elements/1.1/">
      <rdf:Description dc:format="image/svg+xml" dc:Label="1" dc:ContentProducer="001191330110MACRLGPT8B00000" dc:ProduceID="382408891" dc:ReservedCode1="4g5n56vvN/JcC5CXHroPpiwWTuyjFZ/wjG31ZbD5lgc=" dc:ContentPropagator="001191330110MACRLGPT8B00000" dc:PropagateID="382408891" dc:ReservedCode2="4g5n56vvN/JcC5CXHroPpiwWTuyjFZ/wjG31ZbD5lgc="/>
    </rdf:RDF>
  </metadata>
  <g transform="translate(165.787601,635.476556) scale(0.059030,-0.059030)" fill="#000000" stroke="none">
    <path d="M5380 7224 c-95 -12 -304 -59 -400 -90 -207 -68 -467 -209 -642 -351 -59 -47 -68 -58 -68 -87 0 -40 26 -66 64 -66 20 0 45 15 82 50 120 109 356 244 549 314 319 115 638 142 941 81 507 -103 931 -387 1206 -810 261 -401 346 -908 238 -1424 -83 -401 -282 -801 -659 -1326 -449 -627 -1182 -1409 -1845 -1970 -323 -273 -827 -655 -865 -655 -28 0 -405 256 -631 429 -556 425 -1209 1050 -1709 1636 -567 666 -931 1288 -1050 1796 -51 219 -68 508 -42 709 61 466 291 873 666 1179 95 78 168 126 317 209 46 26 203 93 283 120 234 81 553 122 801 102 240 -20 435 -73 639 -174 343 -170 588 -390 1245 -1121 74 -82 242 -259 372 -393 236 -241 278 -294 278 -351 0 -65 -70 -82 -131 -32 -40 33 -60 62 -215 306 -160 252 -208 309 -236 281 -12 -12 -31 4 -123 105 -108 118 -137 141 -157 121 -15 -15 3 -40 117 -163 155 -166 185 -206 269 -354 97 -172 199 -328 246 -375 135 -135 328 -88 356 87 16 104 -39 185 -336 488 -129 132 -274 283 -321 335 -307 341 -415 457 -593 636 -286 286 -448 410 -702 539 -138 70 -319 132 -489 167 -96 20 -140 23 -345 23 -181 0 -262 -4 -354 -19 -846 -132 -1518 -745 -1685 -1536 -32 -151 -41 -241 -41 -403 0 -259 26 -427 102 -672 97 -313 254 -627 491 -980 503 -750 1324 -1616 2172 -2291 270 -215 730 -528 795 -540 36 -8 73 14 278 163 496 359 936 736 1388 1187 834 836 1445 1648 1696 2257 178 429 231 827 168 1250 -14 93 -71 304 -106 389 -245 606 -778 1050 -1438 1197 -95 21 -142 25 -326 28 -118 2 -231 1 -250 -1z m-789 -1691 c13 -16 12 -17 -3 -4 -10 7 -18 15 -18 17 0 8 8 3 21 -13z"/>
    <path d="M1977 6448 c-52 -57 -108 -119 -126 -139 -17 -20 -39 -36 -48 -35 -11 1 -18 -7 -19 -21 -1 -11 -25 -48 -54 -81 -46 -52 -56 -59 -75 -52 -30 12 -37 3 -19 -25 13 -20 13 -24 -1 -35 -8 -7 -15 -19 -15 -27 0 -15 13 -15 51 1 11 5 46 -25 123 -109 60 -63 114 -115 122 -115 33 0 6 42 -96 150 -61 63 -109 119 -107 125 5 15 101 124 111 124 10 1 98 -74 219 -186 55 -51 93 -80 102 -76 8 3 15 9 15 13 0 10 -173 174 -244 231 -30 24 -55 49 -55 54 -1 6 55 72 124 148 69 76 123 143 120 148 -14 21 -38 3 -128 -93z"/>
    <path d="M1564 6190 c-78 -69 -97 -79 -109 -60 -3 6 -13 10 -21 10 -25 0 -15 -38 15 -59 31 -22 51 -27 51 -12 0 6 38 42 85 82 80 67 99 96 69 106 -6 2 -46 -28 -90 -67z"/>
    <path d="M1550 6065 c-7 -8 -20 -15 -30 -15 -13 0 -17 -6 -13 -18 2 -11 -3 -44 -12 -75 -19 -67 -12 -68 -125 28 -45 39 -87 70 -93 70 -39 0 17 -67 136 -162 36 -29 46 -43 42 -58 -3 -11 -8 -44 -12 -72 -5 -44 -3 -53 10 -53 16 0 20 9 32 68 7 34 25 41 45 17 15 -18 50 -20 50 -3 0 7 -16 29 -36 49 l-36 37 17 51 c9 28 18 51 20 51 2 0 29 -27 61 -60 32 -33 62 -59 68 -57 24 8 14 31 -38 85 -36 38 -56 67 -56 83 0 37 -14 53 -30 34z"/>
    <path d="M3036 5947 c-53 -30 -76 -77 -76 -152 0 -96 59 -198 291 -507 309 -409 651 -773 787 -836 145 -66 277 19 277 178 0 92 -22 126 -291 445 -509 606 -693 805 -797 865 -66 38 -134 40 -191 7z m161 -141 c107 -81 222 -209 732 -813 112 -133 217 -262 233 -285 35 -53 38 -108 7 -139 -47 -47 -110 -7 -315 203 -326 336 -774 925 -774 1020 0 30 19 58 39 58 11 0 45 -20 78 -44z"/>
    <path d="M4930 2257 c-25 -23 -87 -80 -138 -126 -91 -81 -93 -83 -113 -65 -15 13 -22 15 -31 6 -9 -9 -7 -16 6 -31 17 -19 16 -21 -17 -58 -35 -37 -35 -38 -56 -19 -28 25 -49 9 -31 -24 9 -17 9 -25 -2 -38 -8 -9 -47 -54 -86 -100 -69 -79 -86 -112 -59 -112 6 0 54 44 105 97 l92 98 44 -49 44 -48 -19 -32 c-24 -39 -24 -46 1 -46 10 0 24 9 30 20 11 20 13 18 54 -26 26 -29 47 -45 54 -40 18 11 15 21 -23 66 -19 23 -35 48 -35 55 0 7 19 34 43 59 l42 47 73 -51 c41 -27 78 -48 83 -44 21 13 5 34 -56 75 -36 23 -65 45 -65 49 0 3 23 28 50 55 49 49 62 75 37 75 -7 0 -39 -23 -70 -51 -61 -54 -61 -54 -117 -6 l-34 29 30 27 c16 15 75 68 132 120 62 56 102 100 102 112 0 30 -21 23 -70 -24z m-168 -310 l37 -30 -42 -49 -41 -49 -42 48 -42 48 35 37 c39 40 39 40 95 -5z"/>
    <path d="M4480 1905 c0 -16 17 -19 44 -9 22 9 10 24 -20 24 -15 0 -24 -6 -24 -15z"/>
    <path d="M4288 1594 l-48 -46 -10 27 c-15 39 -35 25 -35 -23 0 -34 -7 -48 -38 -80 -32 -33 -36 -41 -23 -51 11 -10 21 -6 50 19 19 17 39 29 44 26 5 -3 15 -24 22 -46 l14 -42 -52 -50 c-49 -47 -58 -68 -28 -68 7 0 59 40 117 90 57 49 111 90 120 90 19 0 49 41 49 66 0 12 -6 15 -25 10 -17 -4 -31 -1 -41 9 -32 31 -40 16 -20 -35 3 -10 -9 -26 -38 -47 -50 -38 -56 -40 -56 -15 0 10 -7 27 -15 38 -23 30 -18 41 40 96 30 28 55 57 55 64 0 27 -36 13 -82 -32z"/>
  </g>
</svg>