<svg version="1.0" xmlns="http://www.w3.org/2000/svg" width="800.000000" height="800.000000" viewBox="0 0 800.000000 800.000000" preserveAspectRatio="xMidYMid meet">
  <metadata>
    <rdf:RDF xmlns:rdf="http://www.w3.org/1999/02/22-rdf-syntax-ns#" xmlns:rdfs="http://www.w3.org/2000/01/rdf-schema#" xmlns:dc="http://purl.org/dc/elements/1.1/">
      <rdf:Description dc:format="image/svg+xml" dc:Label="1" dc:ContentProducer="001191330110MACRLGPT8B00000" dc:ProduceID="382407602" dc:ReservedCode1="03Q8omVfQrg/X7LGuDuRiKChHzmiQP2UzTBpodit4Xg=" dc:ContentPropagator="001191330110MACRLGPT8B00000" dc:PropagateID="382407602" dc:ReservedCode2="03Q8omVfQrg/X7LGuDuRiKChHzmiQP2UzTBpodit4Xg="/>
    </rdf:RDF>
  </metadata>
  <g transform="translate(189.947476,624.862041) scale(0.054268,-0.054268)" fill="#000000" stroke="none">
    <path d="M2020 7690 c-92 -11 -176 -46 -228 -94 -104 -96 -137 -201 -157 -501 -3 -49 -11 -103 -17 -118 -23 -59 -33 -60 -488 -69 -228 -4 -511 -12 -628 -17 l-214 -8 -66 -34 c-47 -24 -75 -47 -97 -77 -27 -40 -30 -51 -30 -120 0 -56 5 -88 19 -116 22 -43 80 -90 135 -107 25 -8 228 -14 641 -18 553 -5 608 -8 637 -24 63 -34 75 -73 98 -307 25 -252 65 -344 174 -398 l56 -27 570 -3 c707 -4 761 2 886 94 104 76 145 183 159 406 5 83 14 159 22 175 7 15 29 36 48 47 35 21 37 21 2010 21 1929 0 1976 0 2020 19 110 47 170 129 170 231 0 61 -24 131 -58 168 -33 37 -111 68 -200 79 -61 7 -467 9 -1342 6 -690 -3 -1547 -2 -1905 1 -632 6 -651 7 -685 27 -19 11 -41 32 -48 46 -7 15 -17 89 -23 165 -22 285 -71 416 -185 491 -100 67 -93 66 -679 68 -291 1 -559 -2 -595 -6z m1070 -131 c183 -29 221 -94 255 -430 18 -185 36 -239 96 -293 21 -19 62 -43 91 -53 50 -17 167 -18 2029 -23 2104 -5 1988 -3 2027 -49 16 -20 15 -86 -3 -120 -8 -16 -31 -37 -52 -47 -37 -18 -98 -19 -1998 -19 -1082 0 -1976 -4 -1995 -9 -83 -20 -147 -72 -176 -143 -8 -17 -20 -107 -28 -200 -21 -240 -45 -295 -150 -344 -100 -47 -155 -50 -751 -47 -621 3 -595 0 -634 80 -12 26 -25 83 -31 143 -20 178 -39 299 -54 350 -20 65 -66 119 -130 153 l-51 27 -625 10 c-692 11 -670 9 -685 75 -11 49 11 86 63 111 44 22 62 23 442 31 217 4 503 12 635 16 229 8 242 9 285 32 68 38 99 96 111 211 39 369 49 410 120 473 43 39 86 53 197 65 117 13 936 13 1012 0z"/>
    <path d="M2755 7344 c-22 -2 -119 -11 -215 -20 -421 -38 -462 -58 -500 -244 -32 -155 -46 -421 -31 -596 21 -258 49 -339 131 -381 53 -27 189 -39 556 -50 226 -6 232 -6 278 16 106 52 115 90 118 535 4 513 -24 656 -142 716 -41 21 -124 31 -195 24z m156 -164 c10 -14 23 -54 29 -90 16 -88 23 -496 13 -710 l-8 -175 -30 -14 c-25 -12 -72 -12 -330 -1 -355 15 -372 17 -396 50 -28 37 -51 210 -52 385 -1 171 27 458 49 492 21 34 41 38 389 78 61 7 157 12 214 11 99 -1 105 -2 122 -26z"/>
    <path d="M2426 7126 c-36 -22 -42 -22 -62 -9 -27 17 -41 2 -19 -21 14 -13 10 -19 -30 -53 -25 -20 -45 -45 -45 -55 0 -25 10 -23 56 12 46 35 51 36 77 13 19 -17 20 -17 15 10 -8 42 21 34 64 -17 26 -31 35 -50 31 -65 -7 -26 18 -29 41 -5 9 8 20 12 26 9 6 -3 10 4 10 17 0 12 11 31 24 43 13 11 27 30 31 43 5 18 2 22 -14 22 -11 0 -23 5 -26 10 -13 21 -24 9 -19 -19 5 -23 1 -32 -24 -50 l-31 -22 -22 31 c-13 16 -31 30 -40 30 -29 0 -33 20 -10 51 39 52 27 62 -33 25z"/>
    <path d="M2667 6535 c-27 -12 -59 -32 -71 -44 -17 -16 -30 -20 -50 -15 -26 6 -37 -8 -16 -21 6 -4 9 -18 7 -33 -4 -30 23 -67 31 -44 2 8 21 -9 44 -42 22 -31 46 -56 54 -56 8 0 14 2 14 4 0 14 -46 105 -63 124 -20 21 -20 23 -4 39 16 16 18 16 33 -5 8 -12 22 -22 30 -22 18 0 17 10 -1 34 -21 28 -20 30 26 55 37 21 47 41 23 47 -5 1 -31 -8 -57 -21z"/>
    <path d="M4630 5184 c-30 -8 -73 -25 -95 -39 -55 -32 -128 -111 -159 -173 -50 -98 -85 -293 -86 -470 0 -40 -5 -82 -11 -94 -27 -50 56 -48 -1916 -48 -1083 0 -1889 -4 -1962 -10 -146 -11 -254 -39 -337 -84 l-59 -33 -3 -103 c-3 -98 -2 -102 17 -97 12 3 27 -3 38 -15 38 -43 106 -79 179 -98 75 -20 122 -20 2023 -20 1526 0 1951 -3 1970 -13 49 -24 63 -68 72 -216 10 -158 25 -228 75 -329 41 -85 120 -170 192 -206 120 -61 213 -68 687 -56 215 6 434 15 488 20 222 22 365 115 428 279 19 48 23 84 28 248 6 190 6 193 32 218 14 15 43 31 65 36 23 6 284 9 644 7 439 -1 616 1 646 10 50 15 116 70 138 116 39 82 6 215 -66 269 -73 54 -37 52 -733 57 -598 5 -653 6 -678 22 -14 10 -32 28 -38 40 -7 13 -16 96 -20 193 -12 260 -43 359 -148 468 -62 65 -137 108 -219 126 -36 7 -229 11 -595 10 -444 0 -552 -3 -597 -15z m1213 -141 c154 -71 199 -170 211 -459 7 -175 22 -233 71 -291 69 -81 38 -77 765 -83 602 -5 647 -6 672 -23 24 -17 48 -62 48 -91 0 -6 -11 -24 -24 -41 l-24 -30 -654 -5 -653 -5 -58 -28 c-62 -31 -98 -70 -117 -130 -7 -21 -15 -123 -19 -225 -7 -176 -9 -190 -34 -239 -41 -80 -108 -123 -229 -148 -88 -19 -643 -39 -898 -33 -148 4 -183 8 -228 26 -154 60 -223 189 -237 442 -9 161 -28 224 -85 280 -81 81 98 75 -2090 75 -2139 0 -2010 -4 -2072 58 -41 41 -34 65 25 88 105 41 141 42 2132 48 l1920 6 48 24 c85 41 117 116 117 274 0 122 23 280 51 343 43 101 109 161 198 180 41 10 196 12 586 11 525 -2 530 -2 578 -24z"/>
    <path d="M4724 4918 c4 -13 9 -30 12 -38 3 -9 -11 -26 -34 -42 -53 -37 -142 -118 -142 -129 0 -20 41 -7 75 22 33 29 38 31 60 19 29 -16 43 -7 25 15 -11 13 -9 20 10 40 27 29 45 31 66 10 9 -8 22 -15 30 -15 22 0 17 27 -8 45 l-23 16 33 28 c54 46 31 73 -28 31 -27 -19 -27 -19 -45 0 -24 27 -39 25 -31 -2z"/>
    <path d="M4852 4728 c-19 -6 -54 -30 -78 -52 -74 -68 -78 -100 -78 -551 0 -331 2 -387 17 -437 22 -73 62 -119 129 -149 53 -24 54 -24 443 -24 448 0 437 -2 485 90 l25 49 0 436 c0 495 -3 518 -65 580 -28 28 -52 41 -91 50 -77 16 -743 23 -787 8z m742 -136 c16 -4 38 -20 49 -34 18 -25 20 -48 25 -315 6 -378 -3 -558 -30 -585 -19 -19 -33 -19 -366 -16 -396 3 -397 4 -427 81 -14 38 -16 89 -13 428 3 413 2 407 57 443 24 16 56 17 351 12 179 -4 338 -10 354 -14z"/>
    <path d="M5317 4183 l-38 -26 -28 21 c-42 31 -58 9 -20 -27 24 -22 25 -18 -26 -87 -6 -9 -6 -17 1 -24 7 -7 21 0 43 21 l34 30 28 -27 c37 -35 48 -24 23 22 l-19 35 43 37 c23 20 42 40 42 45 0 16 -47 5 -83 -20z"/>
    <path d="M5165 4110 c3 -5 10 -10 16 -10 5 0 9 5 9 10 0 6 -7 10 -16 10 -8 0 -12 -4 -9 -10z"/>
    <path d="M5235 3935 c-16 -13 -41 -24 -54 -25 -16 0 -21 -4 -18 -14 4 -9 -17 -31 -54 -60 -56 -43 -75 -76 -46 -76 8 0 39 18 70 40 30 22 59 40 63 40 4 0 18 -9 30 -21 33 -31 49 -15 23 23 l-22 30 37 34 c55 51 29 77 -29 29z"/>
    <path d="M5770 3547 c0 -7 5 -18 11 -24 8 -8 -5 -26 -45 -65 -74 -72 -77 -124 -4 -62 22 18 34 22 41 15 18 -18 26 -12 24 16 -1 20 4 31 21 38 28 13 28 37 -2 69 -25 28 -46 34 -46 13z"/>
    <path d="M2380 2644 c-435 -24 -489 -34 -592 -112 -109 -82 -140 -159 -159 -392 -14 -171 -33 -237 -76 -266 -37 -25 -48 -25 -768 -44 -294 -8 -429 -15 -477 -26 -154 -35 -246 -153 -218 -280 14 -63 52 -109 116 -140 64 -31 46 -31 584 -15 671 20 749 16 791 -37 29 -37 36 -79 53 -297 10 -122 22 -221 33 -253 20 -63 71 -125 122 -151 79 -40 120 -43 786 -39 601 3 643 4 690 22 48 19 145 103 145 127 0 6 6 25 14 42 25 57 37 149 43 320 5 149 8 172 27 200 33 50 82 68 214 79 203 17 3246 -10 3622 -33 177 -10 187 -10 240 10 103 38 169 128 170 229 0 124 -86 224 -218 251 -37 8 -515 11 -1600 11 -1512 0 -2283 10 -2351 30 -77 22 -91 56 -111 277 -17 193 -55 295 -137 375 -43 42 -126 83 -199 99 -48 10 -613 20 -744 13z m608 -134 c132 -10 182 -26 240 -75 63 -53 83 -117 102 -330 15 -158 39 -236 88 -289 47 -49 86 -65 186 -78 49 -6 821 -13 1976 -17 1456 -6 1904 -11 1934 -20 77 -25 118 -107 79 -159 -11 -14 -31 -34 -44 -44 -24 -18 -40 -19 -380 -9 -492 15 -1948 32 -2779 33 -729 1 -796 -3 -891 -43 -59 -26 -133 -104 -150 -157 -6 -20 -15 -123 -19 -227 -9 -249 -27 -306 -111 -351 -32 -18 -67 -19 -674 -19 -620 0 -641 1 -680 20 -71 36 -78 62 -105 388 -6 77 -18 161 -26 187 -20 68 -70 129 -129 159 -48 25 -57 26 -260 29 -115 2 -400 -1 -632 -8 -478 -12 -476 -13 -489 56 -9 48 18 83 81 107 58 22 277 33 805 42 201 4 390 11 420 17 87 16 144 58 180 132 29 62 33 82 60 341 23 211 88 273 315 296 249 25 706 34 903 19z"/>
    <path d="M2514 2265 c-291 -20 -347 -26 -380 -43 -83 -42 -101 -91 -116 -302 -11 -164 -4 -503 13 -673 13 -132 44 -201 107 -235 35 -20 66 -25 180 -33 75 -5 207 -16 292 -24 265 -27 284 -28 326 -16 25 7 58 27 82 52 72 71 72 70 67 623 -3 274 -10 506 -15 526 -14 50 -49 100 -85 121 -49 28 -112 28 -471 4z m417 -132 c20 -24 33 -973 14 -1019 -15 -37 -68 -59 -118 -50 -59 10 -210 25 -412 41 -192 14 -201 15 -222 39 -26 30 -31 73 -42 365 -8 195 0 486 15 554 3 15 13 31 23 36 9 5 125 17 256 25 132 9 258 17 280 19 120 10 193 7 206 -10z"/>
    <path d="M2542 1935 c-43 -29 -52 -32 -62 -20 -19 23 -33 18 -26 -11 5 -17 0 -33 -14 -51 -24 -31 -25 -49 -4 -57 22 -8 24 -8 24 8 0 8 7 16 15 20 10 4 15 -1 15 -14 0 -11 -4 -20 -10 -20 -5 0 -10 -7 -10 -15 0 -8 -11 -31 -25 -51 -29 -43 -29 -44 -11 -69 13 -18 15 -16 35 22 24 47 40 61 51 43 12 -19 22 5 14 34 -4 19 -2 28 10 32 9 3 16 14 16 24 0 20 -27 35 -33 17 -2 -6 -6 -4 -10 6 -4 12 8 29 43 59 28 24 50 51 50 61 0 24 -11 22 -68 -18z"/>
    <path d="M2591 1550 l22 -39 -43 -39 c-43 -38 -45 -39 -64 -20 -25 23 -42 9 -26 -22 6 -12 9 -32 6 -44 -7 -28 1 -38 23 -27 12 7 25 -2 55 -36 32 -36 37 -49 32 -74 -6 -31 3 -36 34 -19 15 8 23 4 44 -20 13 -17 27 -30 30 -30 13 0 4 37 -14 60 -24 30 -25 46 -5 54 20 7 19 36 0 36 -8 0 -24 -6 -36 -12 -18 -12 -24 -8 -60 29 -21 23 -39 46 -39 51 0 5 18 23 40 41 28 22 46 30 60 26 16 -5 20 -2 20 18 0 17 12 33 40 52 22 15 40 32 40 37 0 21 -33 18 -66 -7 l-36 -27 -27 26 c-41 40 -56 33 -30 -14z"/>
    <path d="M2390 1345 c0 -9 5 -15 11 -13 6 2 11 8 11 13 0 5 -5 11 -11 13 -6 2 -11 -4 -11 -13z"/>
  </g>
</svg>