<svg version="1.0" xmlns="http://www.w3.org/2000/svg" width="800.000000" height="800.000000" viewBox="0 0 800.000000 800.000000" preserveAspectRatio="xMidYMid meet">
  <metadata>
    <rdf:RDF xmlns:rdf="http://www.w3.org/1999/02/22-rdf-syntax-ns#" xmlns:rdfs="http://www.w3.org/2000/01/rdf-schema#" xmlns:dc="http://purl.org/dc/elements/1.1/">
      <rdf:Description dc:format="image/svg+xml" dc:Label="1" dc:ContentProducer="001191330110MACRLGPT8B00000" dc:ProduceID="382409373" dc:ReservedCode1="f7aHzM840Dgt0LfA2uA7gtx/9BnxIcTja10EI75Vtzo=" dc:ContentPropagator="001191330110MACRLGPT8B00000" dc:PropagateID="382409373" dc:ReservedCode2="f7aHzM840Dgt0LfA2uA7gtx/9BnxIcTja10EI75Vtzo="/>
    </rdf:RDF>
  </metadata>
  <g transform="translate(181.022932,619.128033) scale(0.054765,-0.054765)" fill="#000000" stroke="none">
    <path d="M3650 7825 c-311 -31 -636 -101 -928 -200 -172 -58 -186 -64 -347 -137 -587 -267 -1135 -737 -1502 -1288 -346 -520 -553 -1107 -620 -1764 -23 -225 -23 -687 0 -896 55 -489 168 -885 369 -1285 256 -511 594 -928 1044 -1289 550 -441 1210 -704 1974 -787 146 -16 548 -16 705 0 383 39 736 123 1070 254 156 61 451 209 593 298 129 80 335 233 461 343 670 584 1129 1418 1251 2276 53 376 55 855 4 1240 -43 334 -114 600 -257 965 -47 121 -224 467 -297 580 -376 585 -903 1055 -1510 1347 -351 168 -713 271 -1180 333 -165 23 -643 28 -830 10z m721 -130 c366 -36 763 -130 1041 -246 40 -17 87 -35 103 -41 48 -18 285 -141 366 -190 498 -303 937 -740 1214 -1210 281 -473 455 -1005 517 -1573 20 -188 17 -786 -5 -950 -76 -558 -221 -985 -490 -1440 -250 -424 -642 -844 -1042 -1116 -130 -89 -263 -169 -375 -226 -97 -49 -105 -52 -110 -33 -5 18 -43 44 -182 124 -27 15 -48 30 -48 34 0 5 23 33 50 64 53 59 63 88 31 88 -14 0 -100 -86 -127 -129 -2 -2 -29 15 -61 38 -64 45 -93 52 -93 22 0 -11 23 -36 56 -61 64 -48 68 -31 -45 -160 -41 -47 -78 -88 -81 -93 -6 -7 -55 18 -144 73 l-39 24 24 15 c52 35 82 68 76 84 -9 25 -17 22 -83 -29 -32 -26 -99 -73 -147 -106 -58 -39 -87 -65 -85 -75 5 -28 23 -24 94 22 38 24 75 45 82 45 6 0 67 -33 135 -73 143 -86 155 -91 173 -76 21 17 17 28 -19 49 l-33 20 59 62 c33 35 75 82 95 105 19 24 38 43 42 43 5 0 53 -26 107 -58 108 -64 133 -76 148 -73 7 2 7 -1 0 -7 -29 -28 -369 -152 -564 -207 -164 -46 -197 -51 -219 -33 -9 8 -26 18 -37 22 -18 7 -19 8 -3 19 9 7 30 20 47 29 35 19 41 48 11 48 -11 0 -42 -13 -68 -30 -27 -16 -55 -30 -63 -30 -8 0 -45 16 -82 35 l-68 34 -110 -52 c-78 -37 -109 -56 -109 -69 0 -27 29 -22 116 17 82 37 119 43 148 22 22 -16 15 -23 -64 -62 -30 -16 -62 -37 -71 -48 -20 -25 -103 -35 -369 -43 -466 -14 -985 80 -1445 263 -1124 447 -1966 1470 -2195 2667 -33 177 -60 436 -67 651 -19 643 113 1290 374 1827 280 577 693 1051 1233 1414 270 182 620 343 956 439 191 55 468 110 679 134 205 24 553 27 766 6z m334 -7309 c37 -17 30 -20 -84 -41 -112 -20 -114 -20 -51 20 59 37 88 42 135 21z"/>
    <path d="M3815 5900 c-123 -11 -329 -54 -452 -95 -128 -43 -316 -136 -442 -218 -398 -262 -665 -643 -785 -1122 -32 -128 -56 -293 -56 -384 0 -64 3 -75 25 -95 23 -21 36 -23 182 -29 87 -4 332 -7 544 -7 l387 0 6 -31 c3 -17 6 -59 6 -93 0 -146 55 -480 111 -676 83 -288 251 -649 387 -829 l25 -34 -51 7 c-148 19 -378 96 -531 178 -217 114 -451 317 -601 521 -75 102 -187 310 -235 434 -31 81 -59 102 -108 84 -58 -22 -48 -75 53 -287 167 -351 453 -658 792 -850 34 -20 115 -58 178 -84 228 -96 412 -138 635 -147 608 -23 1148 214 1509 662 103 128 147 194 220 338 121 238 196 537 196 782 0 79 -2 87 -29 117 -26 30 -36 33 -103 39 -40 3 -274 4 -519 1 l-446 -5 -7 144 c-22 440 -109 786 -290 1149 -61 122 -143 255 -205 334 -17 21 -31 43 -31 48 0 21 246 -33 381 -82 162 -60 351 -170 509 -295 92 -74 236 -229 294 -316 27 -41 56 -85 66 -99 27 -40 115 -228 141 -303 35 -100 66 -125 120 -96 39 20 41 53 10 136 -96 260 -233 477 -415 658 -325 323 -723 508 -1172 545 -132 11 -167 11 -299 0z m253 -222 c139 -183 246 -376 330 -598 104 -275 158 -541 178 -882 l6 -118 -611 0 -611 0 0 48 c0 26 7 108 15 182 60 533 234 1023 500 1403 38 53 42 57 81 57 40 0 43 -2 112 -92z m-328 76 c0 -3 -17 -31 -38 -62 -180 -267 -350 -711 -422 -1097 -19 -106 -50 -368 -50 -430 0 -33 -4 -66 -9 -74 -7 -11 -92 -13 -504 -9 -273 2 -499 7 -503 11 -10 9 12 165 41 297 33 148 83 288 156 435 224 455 674 797 1194 909 120 27 135 29 135 20z m1941 -1799 c8 -8 -10 -174 -32 -290 -33 -178 -82 -321 -169 -495 -36 -72 -80 -127 -80 -101 0 7 -17 19 -37 28 -21 8 -40 17 -42 19 -3 3 12 22 33 43 37 38 41 61 10 61 -7 0 -32 -17 -55 -37 l-41 -37 -43 15 c-28 10 -49 13 -59 7 -29 -16 -16 -36 37 -56 28 -11 78 -32 109 -46 32 -14 64 -23 73 -20 25 10 8 -23 -54 -105 -31 -41 -60 -79 -66 -85 -6 -6 -49 -11 -102 -12 l-92 -1 39 48 c40 47 49 72 30 84 -10 6 -75 -56 -107 -102 -13 -20 -24 -23 -80 -23 -61 0 -64 -1 -61 -22 2 -18 11 -24 36 -26 17 -2 32 -5 32 -7 0 -3 -25 -39 -55 -81 -30 -42 -57 -86 -61 -97 -4 -12 -12 -25 -18 -29 -16 -11 -94 -10 -101 2 -11 18 -34 10 -37 -12 -2 -18 -11 -24 -35 -26 -27 -3 -33 -8 -33 -26 0 -28 12 -39 60 -56 32 -11 39 -10 72 11 21 13 37 29 38 34 0 6 10 12 23 12 50 4 67 13 67 36 0 22 75 143 122 198 21 24 32 27 116 33 91 6 93 5 79 -14 -27 -39 -173 -162 -267 -225 -98 -65 -244 -139 -360 -181 -124 -45 -370 -98 -370 -80 0 2 30 51 66 108 53 84 165 299 204 393 129 311 203 629 231 997 l12 158 341 3 c188 1 404 3 482 5 77 1 143 0 145 -3z m-1110 -9 c13 -13 -27 -423 -52 -531 -52 -230 -117 -442 -172 -565 -105 -235 -168 -347 -271 -488 -46 -63 -68 -84 -94 -92 -18 -5 -39 -7 -45 -4 -17 7 -98 119 -162 223 -242 397 -386 866 -411 1335 l-7 126 605 0 c332 0 607 -2 609 -4z"/>
    <path d="M5495 3495 c-27 -25 -55 -45 -62 -45 -7 0 -32 14 -55 30 -44 32 -63 37 -74 18 -5 -7 10 -27 37 -51 l44 -39 -48 -42 c-26 -22 -47 -47 -47 -53 0 -25 52 -13 94 22 24 19 47 35 52 35 5 0 28 -10 51 -22 31 -16 45 -20 53 -12 12 12 -1 29 -43 59 -22 15 -22 16 36 66 31 28 57 57 57 65 0 28 -46 13 -95 -31z"/>
    <path d="M6180 1420 c-35 -52 -45 -60 -63 -54 -60 19 -125 34 -150 34 -23 0 -28 -4 -25 -22 2 -17 15 -24 76 -38 40 -10 75 -20 79 -24 3 -3 -19 -43 -49 -88 -70 -105 -78 -121 -78 -152 0 -15 -6 -26 -13 -26 -18 0 -117 30 -117 35 0 2 16 35 35 74 38 75 45 121 20 121 -13 0 -79 -118 -97 -172 -2 -6 -29 1 -66 16 -70 30 -88 32 -95 12 -7 -18 5 -28 71 -56 29 -13 52 -28 50 -34 -2 -6 -21 -42 -43 -79 -39 -67 -41 -68 -75 -63 -19 3 -65 9 -102 12 -59 6 -68 5 -74 -11 -10 -24 7 -31 88 -39 39 -3 74 -9 79 -12 12 -7 -22 -53 -38 -54 -16 0 -17 -42 -1 -58 22 -22 36 -13 65 41 31 58 31 58 145 42 50 -7 58 -5 64 10 9 23 -10 33 -78 41 -32 4 -58 10 -58 14 0 5 17 37 39 71 45 74 38 73 186 35 106 -28 150 -30 150 -7 0 17 -16 25 -73 41 l-42 11 26 47 c15 26 30 51 34 55 4 5 47 -3 96 -17 102 -30 154 -34 154 -11 0 18 -16 25 -120 54 -41 12 -78 25 -82 29 -4 4 7 29 25 55 27 41 36 47 57 42 14 -3 73 -13 132 -23 81 -12 110 -14 119 -5 23 23 2 40 -58 47 -64 8 -164 26 -175 32 -3 2 9 27 28 55 39 58 43 79 14 79 -12 0 -34 -21 -60 -60z"/>
    <path d="M5948 1143 c7 -3 16 -2 19 1 4 3 -2 6 -13 5 -11 0 -14 -3 -6 -6z"/>
  </g>
</svg>