<svg version="1.0" xmlns="http://www.w3.org/2000/svg" width="800.000000" height="800.000000" viewBox="0 0 800.000000 800.000000" preserveAspectRatio="xMidYMid meet">
  <metadata>
    <rdf:RDF xmlns:rdf="http://www.w3.org/1999/02/22-rdf-syntax-ns#" xmlns:rdfs="http://www.w3.org/2000/01/rdf-schema#" xmlns:dc="http://purl.org/dc/elements/1.1/">
      <rdf:Description dc:format="image/svg+xml" dc:Label="1" dc:ContentProducer="001191330110MACRLGPT8B00000" dc:ProduceID="382406995" dc:ReservedCode1="kHPAoS4hl3TXBkxyv8Bz5usubKAbIPZqc7VCt1Yo0yE=" dc:ContentPropagator="001191330110MACRLGPT8B00000" dc:PropagateID="382406995" dc:ReservedCode2="kHPAoS4hl3TXBkxyv8Bz5usubKAbIPZqc7VCt1Yo0yE="/>
    </rdf:RDF>
  </metadata>
  <g transform="translate(178.506746,622.067800) scale(0.055682,-0.055682)" fill="#000000" stroke="none">
    <path d="M2213 6225 c-23 -7 -64 -25 -90 -41 -30 -17 -305 -284 -748 -728 -741 -742 -1022 -1033 -1088 -1130 -106 -157 -108 -377 -3 -540 42 -64 267 -324 535 -616 265 -289 1293 -1314 1345 -1342 22 -11 65 -23 96 -25 126 -12 232 52 292 175 30 61 33 76 33 157 0 131 -12 148 -305 448 -135 139 -324 335 -420 437 -96 102 -329 341 -519 532 -190 190 -353 361 -363 380 -26 47 -23 117 5 159 13 19 93 104 178 190 597 603 889 912 1323 1399 27 30 63 84 80 120 26 56 30 76 30 150 0 133 -48 213 -159 266 -58 27 -152 31 -222 9z m194 -135 c46 -28 66 -80 59 -157 -7 -80 -17 -98 -117 -213 -264 -303 -571 -631 -1070 -1141 -256 -261 -405 -421 -419 -450 -15 -27 -25 -69 -28 -112 -4 -60 -2 -74 26 -130 26 -53 76 -106 328 -357 163 -162 405 -410 538 -550 132 -140 345 -361 472 -490 273 -278 286 -298 264 -397 -14 -60 -51 -118 -93 -143 -36 -22 -106 -26 -140 -9 -25 13 -217 200 -217 211 0 4 9 12 21 18 16 9 24 8 38 -4 10 -9 27 -16 39 -16 29 0 29 34 0 54 l-22 16 32 33 c58 59 25 83 -35 25 l-33 -32 -29 28 c-18 17 -36 26 -45 23 -22 -9 -20 -18 9 -49 30 -33 31 -40 5 -56 -19 -12 -54 21 -473 440 -466 466 -890 921 -1090 1169 -88 110 -117 242 -78 358 29 84 45 106 197 274 211 233 1614 1633 1659 1656 55 28 158 28 202 1z"/>
    <path d="M685 4353 c-27 -38 -50 -70 -51 -72 -2 -2 -17 9 -35 23 -55 46 -79 16 -27 -33 28 -26 31 -33 21 -48 -74 -107 -96 -163 -64 -163 6 0 30 32 55 70 25 39 50 70 55 70 5 0 14 -7 21 -15 10 -12 10 -18 0 -31 -11 -12 -11 -18 2 -30 13 -13 16 -13 30 3 29 34 30 59 3 91 -14 16 -25 34 -25 38 0 5 20 35 45 66 44 57 58 98 32 98 -7 0 -35 -30 -62 -67z"/>
    <path d="M2303 2212 c-6 -4 -20 -26 -32 -50 l-22 -43 -35 30 c-37 33 -49 37 -60 20 -3 -6 10 -28 30 -48 l37 -38 -15 -42 c-13 -38 -12 -43 1 -48 15 -6 37 14 46 41 3 7 16 2 35 -11 63 -46 84 -21 27 31 l-34 32 24 49 c13 28 25 55 25 62 0 16 -13 23 -27 15z"/>
    <path d="M5480 6220 c-128 -47 -190 -136 -190 -275 0 -85 36 -152 150 -282 340 -387 726 -804 1115 -1205 138 -142 273 -285 302 -318 59 -67 73 -112 52 -163 -7 -17 -144 -167 -304 -332 -159 -166 -402 -422 -540 -570 -137 -148 -352 -378 -476 -510 -289 -306 -315 -337 -350 -410 -69 -142 -12 -315 125 -383 58 -29 144 -42 217 -32 114 16 132 29 452 348 279 278 811 820 1027 1048 52 55 212 220 355 368 158 163 269 286 283 313 54 105 64 191 36 314 -19 86 -77 175 -195 304 -379 414 -1244 1298 -1552 1586 -182 170 -252 210 -375 216 -59 3 -90 -1 -132 -17z m228 -135 c66 -31 114 -75 625 -584 555 -552 1153 -1178 1227 -1287 44 -63 63 -134 58 -212 -8 -106 -30 -141 -192 -307 -81 -82 -229 -235 -328 -340 -489 -512 -1418 -1448 -1463 -1473 -21 -12 -54 -17 -112 -17 -76 0 -84 2 -120 31 -21 17 -45 44 -53 60 -18 37 -16 114 6 156 19 38 108 140 245 283 53 55 253 269 444 475 372 401 461 495 760 800 215 219 235 250 235 352 0 110 -21 140 -277 401 -311 317 -802 839 -1008 1072 -44 49 -99 110 -121 135 -213 233 -247 295 -210 384 14 35 66 80 101 89 55 13 132 6 183 -18z"/>
    <path d="M5758 5773 c-7 -16 -13 -30 -14 -32 -2 -2 -18 6 -37 18 -42 26 -47 26 -47 1 0 -11 13 -29 29 -41 29 -21 29 -23 15 -50 -26 -52 -9 -67 32 -28 l23 22 37 -22 c20 -12 43 -20 50 -17 25 10 14 32 -26 55 -22 12 -40 24 -40 27 0 3 7 18 15 34 16 31 11 60 -11 60 -8 0 -20 -12 -26 -27z"/>
    <path d="M7303 3963 c-4 -10 2 -23 15 -34 33 -26 28 -40 -9 -27 -21 7 -34 7 -41 0 -16 -16 -2 -42 22 -42 27 0 25 -18 -5 -62 -53 -79 -14 -95 41 -18 37 51 39 52 90 33 6 -2 16 3 23 11 9 11 7 18 -15 35 -25 20 -26 22 -10 46 9 13 16 31 16 40 0 21 -37 19 -49 -2 -8 -16 -12 -15 -31 10 -25 31 -38 34 -47 10z"/>
    <path d="M7114 3686 c-4 -10 2 -23 15 -34 l21 -17 -46 -58 c-33 -41 -50 -55 -57 -48 -29 29 -61 -7 -34 -37 14 -16 11 -24 -44 -95 -32 -44 -57 -83 -53 -88 12 -21 34 -6 80 56 51 67 63 75 84 50 7 -8 16 -15 21 -15 12 0 11 47 -1 55 -19 11 -10 32 41 99 47 62 53 67 80 61 22 -5 29 -3 29 9 0 24 -39 58 -69 61 -14 1 -34 6 -43 10 -12 5 -20 2 -24 -9z"/>
    <path d="M4313 6146 c-60 -19 -104 -49 -156 -105 -81 -86 -79 -82 -282 -841 -8 -30 -42 -154 -74 -275 -33 -121 -76 -283 -96 -360 -20 -77 -56 -210 -80 -295 -49 -174 -112 -403 -155 -560 -15 -58 -47 -175 -70 -260 -24 -85 -49 -182 -57 -215 -8 -33 -39 -148 -69 -255 -30 -107 -73 -260 -96 -340 -22 -80 -54 -190 -70 -245 -39 -133 -48 -198 -36 -265 21 -116 108 -229 216 -277 79 -36 213 -38 285 -5 106 48 173 125 214 246 13 39 54 186 90 326 35 140 73 287 83 325 10 39 27 106 38 150 24 94 151 570 187 700 13 50 43 158 66 240 50 185 74 271 134 495 25 96 52 195 60 220 14 48 40 145 130 485 31 116 73 273 95 350 82 302 85 315 85 425 0 96 -2 110 -28 158 -36 69 -106 138 -165 165 -59 26 -188 33 -249 13z m194 -127 c38 -14 81 -56 104 -102 39 -75 36 -113 -29 -362 -51 -196 -225 -848 -282 -1055 -19 -68 -108 -396 -140 -515 -10 -38 -44 -162 -75 -275 -88 -320 -134 -494 -169 -630 -18 -69 -76 -295 -130 -503 -97 -381 -117 -450 -142 -498 -57 -111 -173 -155 -297 -113 -68 23 -132 97 -147 170 -14 66 -19 42 101 474 133 475 181 650 298 1085 33 121 76 279 96 350 31 113 64 235 165 610 12 44 44 163 71 265 59 218 139 516 189 705 10 39 28 102 40 140 12 39 26 85 31 102 15 50 69 114 118 140 49 25 147 32 198 12z"/>
    <path d="M4436 5903 c-3 -10 -8 -44 -12 -75 -6 -56 -7 -58 -35 -58 -22 0 -29 -5 -29 -19 0 -11 9 -23 20 -26 24 -8 24 -4 5 -102 -19 -101 -19 -143 0 -143 16 0 16 1 40 125 23 119 21 114 60 108 74 -12 83 28 10 41 -38 8 -40 12 -26 84 5 24 6 52 4 63 -7 24 -30 25 -37 2z"/>
    <path d="M3451 2338 c-4 -13 -14 -59 -21 -103 -17 -108 -24 -125 -55 -125 -31 0 -35 -29 -5 -37 16 -4 20 -14 20 -49 0 -36 3 -44 19 -44 15 0 20 10 26 46 l7 47 54 -7 c45 -5 56 -3 61 10 8 22 -14 34 -65 34 -37 0 -43 3 -38 18 13 42 37 206 32 218 -8 21 -26 17 -35 -8z"/>
  </g>
</svg>