<svg version="1.0" xmlns="http://www.w3.org/2000/svg" width="800.000000" height="800.000000" viewBox="0 0 800.000000 800.000000" preserveAspectRatio="xMidYMid meet">
  <metadata>
    <rdf:RDF xmlns:rdf="http://www.w3.org/1999/02/22-rdf-syntax-ns#" xmlns:rdfs="http://www.w3.org/2000/01/rdf-schema#" xmlns:dc="http://purl.org/dc/elements/1.1/">
      <rdf:Description dc:format="image/svg+xml" dc:Label="1" dc:ContentProducer="001191330110MACRLGPT8B00000" dc:ProduceID="382408478" dc:ReservedCode1="/6rxt8Ol1qLfnRSZ2IMeF7l/vLNoTiJnGeTmxRyE14Q=" dc:ContentPropagator="001191330110MACRLGPT8B00000" dc:PropagateID="382408478" dc:ReservedCode2="/6rxt8Ol1qLfnRSZ2IMeF7l/vLNoTiJnGeTmxRyE14Q="/>
    </rdf:RDF>
  </metadata>
  <g transform="translate(184.787609,622.244275) scale(0.054487,-0.054487)" fill="#000000" stroke="none">
    <path d="M3885 7854 c-661 -47 -1268 -297 -1695 -697 -661 -621 -950 -1565 -755 -2472 24 -114 93 -330 126 -399 10 -22 19 -44 19 -49 0 -5 -15 -32 -34 -60 -93 -144 -158 -263 -336 -612 -310 -609 -569 -1085 -746 -1371 -37 -60 -124 -194 -194 -299 -166 -248 -174 -263 -174 -350 -1 -109 51 -191 158 -248 34 -18 58 -22 136 -22 89 0 107 4 295 64 325 104 701 230 751 251 59 26 89 25 108 -2 9 -13 43 -88 77 -168 33 -80 64 -154 69 -165 12 -27 64 -154 172 -425 50 -124 110 -265 135 -313 99 -198 223 -261 358 -182 60 34 93 82 216 305 57 102 135 244 175 315 39 72 92 168 116 215 55 104 113 211 143 265 12 22 44 81 70 130 27 50 86 158 133 240 46 83 97 173 112 200 35 64 305 517 363 611 l44 71 199 -4 c109 -2 199 -5 200 -6 0 -1 19 -29 41 -62 50 -75 418 -720 556 -975 16 -30 51 -93 77 -140 26 -47 96 -175 155 -285 343 -639 383 -704 482 -795 77 -70 141 -100 217 -100 70 0 127 28 170 84 33 44 95 174 136 286 17 47 34 94 39 105 23 52 176 528 201 625 26 101 82 147 164 135 137 -21 704 -175 921 -250 140 -48 170 -55 237 -55 171 0 280 99 282 256 0 64 -4 79 -46 167 -26 53 -89 167 -141 254 -99 166 -221 376 -277 478 -278 502 -552 1001 -683 1245 -22 41 -59 109 -82 150 -23 41 -59 107 -80 145 -21 39 -72 126 -113 195 l-74 125 17 45 c225 594 262 1100 118 1625 -66 244 -201 550 -328 745 -174 268 -389 499 -643 689 -255 191 -605 351 -910 415 -245 51 -527 81 -677 70z m450 -160 c453 -69 804 -221 1145 -495 657 -529 1017 -1418 895 -2212 -34 -224 -97 -452 -178 -647 -166 -397 -430 -742 -775 -1014 -363 -286 -790 -454 -1277 -503 -148 -14 -194 -15 -350 -5 -247 17 -389 46 -648 134 -638 216 -1212 759 -1470 1393 -119 291 -170 564 -171 905 -1 275 28 471 105 723 251 817 827 1394 1629 1630 204 60 308 82 510 107 188 23 361 18 585 -16z m1959 -3659 c25 -42 46 -78 46 -80 0 -2 14 -27 30 -55 17 -28 89 -160 161 -293 310 -570 542 -994 634 -1157 45 -80 94 -167 109 -195 33 -58 141 -243 234 -400 36 -60 90 -156 120 -214 46 -89 53 -111 49 -143 -7 -55 -32 -87 -84 -110 -55 -24 -98 -20 -222 24 -169 59 -327 109 -401 128 -41 10 -191 48 -333 84 -142 36 -272 66 -290 66 -57 0 -136 -30 -177 -66 -49 -44 -70 -91 -132 -288 -109 -352 -229 -690 -278 -787 -11 -20 -31 -50 -45 -68 -52 -61 -134 -37 -226 66 -49 54 -174 270 -359 618 -29 55 -63 118 -75 140 -12 22 -64 117 -115 210 -247 452 -405 733 -553 983 -66 111 -118 204 -116 206 2 1 47 10 99 20 52 9 106 19 120 22 23 4 32 -7 109 -138 118 -201 431 -748 431 -754 0 -2 34 -63 75 -135 41 -71 75 -132 75 -134 0 -2 24 -48 53 -102 30 -54 80 -150 112 -213 85 -167 160 -284 190 -298 48 -22 91 -15 128 21 37 35 62 101 157 407 131 419 160 499 199 540 45 48 90 58 186 41 97 -16 314 -84 585 -181 246 -88 279 -94 340 -62 44 24 74 81 66 125 -3 18 -27 68 -52 112 -25 44 -101 181 -168 305 -137 251 -194 358 -423 800 -120 229 -248 462 -350 631 -51 85 -93 161 -93 168 0 8 15 39 34 70 19 31 46 80 60 109 15 28 30 52 35 52 5 0 30 -34 55 -75z m-4608 -7 c15 -29 44 -79 65 -111 22 -32 39 -65 39 -73 0 -8 -22 -42 -50 -75 -68 -81 -192 -295 -387 -669 -33 -63 -89 -169 -123 -235 -35 -66 -124 -232 -198 -370 -74 -137 -169 -313 -210 -389 -101 -188 -107 -252 -27 -291 79 -37 203 -13 555 105 172 58 285 90 319 90 41 0 111 -40 140 -80 28 -39 124 -263 266 -625 48 -121 98 -234 111 -252 27 -36 88 -59 128 -49 57 14 94 63 195 264 54 109 124 243 155 300 31 56 56 105 56 107 0 2 13 26 28 52 16 26 50 89 77 138 26 50 78 144 115 210 37 66 120 215 185 330 171 305 196 345 213 345 18 0 236 -41 240 -45 2 -2 -66 -121 -152 -265 -86 -144 -156 -263 -156 -264 0 -2 -25 -46 -56 -97 -71 -118 -274 -488 -529 -964 -21 -38 -49 -90 -63 -115 -38 -69 -174 -316 -217 -395 -95 -172 -145 -207 -216 -148 -36 31 -99 156 -179 358 -28 72 -68 168 -87 215 -20 47 -64 155 -98 240 -158 391 -172 418 -235 451 -50 27 -108 23 -208 -12 -114 -41 -506 -172 -750 -250 -176 -56 -198 -61 -257 -57 -73 6 -107 24 -135 71 -25 40 -25 80 -1 132 10 22 92 151 182 286 90 135 173 261 183 280 11 19 40 68 64 109 74 127 216 381 257 460 21 41 55 104 75 140 35 61 78 144 330 635 201 391 300 565 321 565 5 0 21 -24 35 -52z m4392 -360 c116 -193 228 -400 495 -908 90 -173 186 -355 212 -405 50 -96 122 -226 217 -394 32 -57 56 -106 53 -109 -3 -4 -27 2 -53 12 -26 10 -164 58 -307 107 -518 176 -628 186 -753 74 -81 -73 -79 -68 -272 -686 -38 -124 -70 -231 -70 -237 0 -6 -4 -14 -10 -17 -5 -3 -35 45 -66 107 -31 62 -88 172 -127 243 -38 72 -88 164 -110 205 -90 170 -413 737 -539 949 -54 90 -98 167 -98 172 0 4 33 17 73 29 246 73 514 214 767 404 115 86 373 340 460 454 35 45 67 82 71 82 4 0 30 -37 57 -82z m-4081 -79 c214 -252 521 -490 833 -645 115 -57 276 -123 342 -139 25 -6 26 -9 13 -28 -7 -12 -44 -76 -81 -142 -292 -522 -348 -623 -378 -678 -18 -34 -44 -82 -58 -107 -67 -121 -204 -383 -282 -537 -48 -95 -91 -173 -95 -173 -10 0 -23 28 -77 170 -24 63 -49 124 -54 135 -16 35 -56 135 -108 271 -97 252 -154 339 -261 391 -48 24 -67 28 -136 27 -71 -2 -107 -10 -310 -77 -324 -106 -402 -129 -436 -125 l-29 3 21 40 c12 22 37 69 57 105 99 184 332 620 389 730 36 69 76 143 88 165 12 22 57 108 100 190 89 171 247 446 282 490 5 6 19 25 33 44 l23 34 26 -30 c14 -16 58 -67 98 -114z"/>
    <path d="M3695 7464 c-496 -54 -931 -250 -1269 -574 -141 -135 -245 -266 -383 -485 -55 -86 -171 -349 -201 -455 -6 -19 -20 -66 -32 -105 -120 -402 -100 -914 54 -1332 87 -236 244 -497 414 -689 504 -568 1210 -823 2004 -725 86 11 174 24 195 30 21 5 74 19 119 31 211 53 380 126 572 247 245 155 501 423 662 696 163 274 256 530 306 834 21 132 30 463 15 589 -49 417 -228 848 -486 1169 -341 423 -839 699 -1390 770 -146 18 -402 18 -580 -1z m670 -142 c308 -56 614 -189 858 -374 392 -295 675 -764 777 -1288 82 -422 6 -942 -197 -1345 -207 -410 -533 -735 -918 -915 -162 -76 -331 -127 -560 -167 -146 -26 -576 -25 -729 0 -445 75 -815 265 -1131 582 -335 334 -535 751 -591 1229 -30 256 -9 518 62 766 218 764 752 1299 1470 1470 79 18 289 55 369 63 22 3 139 4 260 2 167 -2 246 -8 330 -23z"/>
    <path d="M3790 6586 c-219 -42 -412 -131 -587 -271 -209 -167 -354 -399 -434 -692 -30 -112 -37 -342 -15 -483 43 -274 166 -512 366 -710 116 -116 185 -169 320 -246 155 -89 401 -154 576 -154 53 0 181 18 259 35 309 69 617 311 789 620 76 138 141 329 167 497 23 150 0 386 -53 543 -55 164 -167 354 -283 483 -75 82 -236 202 -344 257 -113 56 -275 110 -374 124 -101 14 -304 12 -387 -3z m291 -115 c267 -28 490 -133 682 -320 139 -135 224 -274 290 -472 134 -402 19 -859 -300 -1190 -427 -443 -1076 -434 -1534 21 -160 159 -257 325 -316 537 -25 91 -27 112 -27 293 0 184 2 200 28 285 41 133 92 246 155 341 185 276 492 465 821 503 104 12 105 12 201 2z"/>
    <path d="M3895 6291 c-372 -49 -681 -318 -791 -688 -51 -172 -42 -406 22 -586 90 -252 298 -480 532 -584 256 -113 595 -89 823 58 323 209 498 685 400 1085 -71 287 -275 530 -542 645 -137 60 -312 87 -444 70z m276 -146 c86 -22 231 -94 301 -149 174 -139 291 -374 305 -615 13 -208 -73 -473 -207 -638 -169 -209 -464 -300 -742 -229 -52 13 -119 36 -149 51 -216 109 -397 336 -456 571 -27 109 -24 326 5 427 43 148 119 274 231 380 77 72 125 106 211 147 52 25 178 63 245 74 52 8 190 -2 256 -19z"/>
    <path d="M5132 3810 c-18 -17 -39 -30 -46 -30 -8 0 -18 -12 -24 -28 -12 -36 -60 -92 -78 -92 -8 0 -36 11 -63 25 -27 13 -51 21 -55 18 -15 -15 -3 -34 39 -59 25 -14 45 -28 45 -31 0 -3 -11 -18 -25 -35 -14 -16 -25 -36 -25 -44 0 -26 36 -14 66 21 31 38 49 42 78 20 11 -8 26 -15 33 -15 22 0 14 37 -11 57 l-25 18 29 34 30 35 49 -24 c51 -23 85 -22 75 4 -3 8 -18 20 -34 26 -52 22 -56 36 -21 75 50 57 21 77 -37 25z"/>
    <path d="M4749 3540 c-18 -22 -37 -40 -44 -40 -6 0 -33 14 -59 30 -73 47 -96 48 -123 4 -13 -19 -23 -41 -23 -49 0 -26 25 -23 50 6 l25 29 53 -31 52 -31 -20 -25 c-46 -58 -3 -74 47 -18 60 68 105 135 99 150 -9 24 -23 18 -57 -25z"/>
    <path d="M5148 3364 c-15 -8 -35 -28 -43 -45 -14 -26 -20 -29 -44 -24 -22 5 -29 1 -38 -17 -7 -17 -28 -29 -71 -42 -92 -27 -90 -73 2 -48 48 12 55 9 33 -16 -22 -25 -23 -66 -1 -58 9 3 17 6 19 6 2 0 22 27 44 60 45 66 115 137 144 146 22 7 19 48 -3 51 -8 1 -27 -4 -42 -13z"/>
  </g>
</svg>