<svg version="1.0" xmlns="http://www.w3.org/2000/svg" width="800.000000" height="800.000000" viewBox="0 0 800.000000 800.000000" preserveAspectRatio="xMidYMid meet">
  <metadata>
    <rdf:RDF xmlns:rdf="http://www.w3.org/1999/02/22-rdf-syntax-ns#" xmlns:rdfs="http://www.w3.org/2000/01/rdf-schema#" xmlns:dc="http://purl.org/dc/elements/1.1/">
      <rdf:Description dc:format="image/svg+xml" dc:Label="1" dc:ContentProducer="001191330110MACRLGPT8B00000" dc:ProduceID="382408101" dc:ReservedCode1="5PE2xtlReYYKlBcupWYV5OLbS9FlsIx2jLCKubjYBb0=" dc:ContentPropagator="001191330110MACRLGPT8B00000" dc:PropagateID="382408101" dc:ReservedCode2="5PE2xtlReYYKlBcupWYV5OLbS9FlsIx2jLCKubjYBb0="/>
    </rdf:RDF>
  </metadata>
  <g transform="translate(166.936058,642.111988) scale(0.058970,-0.058970)" fill="#000000" stroke="none">
    <path d="M3029 7055 c-4 -3 -283 -7 -620 -8 l-614 -2 -51 -27 c-56 -29 -98 -73 -123 -128 -18 -40 -18 -59 -1 -1025 6 -335 15 -1053 21 -1595 5 -542 13 -1008 17 -1036 16 -102 76 -159 158 -151 82 8 97 28 350 457 207 351 336 594 368 695 11 33 23 64 27 68 4 5 24 -22 45 -60 288 -522 605 -1010 707 -1087 40 -30 107 -49 144 -40 60 14 85 35 111 92 24 53 26 66 24 187 -1 72 -6 218 -12 325 -5 107 -15 359 -20 560 -6 201 -17 543 -25 760 -26 719 -29 994 -14 1320 23 498 19 547 -48 621 -61 68 -77 73 -268 77 -93 2 -173 1 -176 -3z m336 -166 c19 -19 20 -30 15 -287 -8 -449 -4 -1180 8 -1502 7 -168 19 -530 27 -805 8 -275 20 -608 27 -740 6 -132 8 -252 5 -267 -17 -67 -80 -11 -219 197 -131 196 -330 524 -435 715 -70 128 -148 251 -168 264 -39 25 -71 29 -108 12 -40 -20 -59 -52 -122 -206 -50 -123 -140 -302 -222 -440 -111 -188 -224 -380 -276 -470 -69 -119 -83 -137 -93 -127 -5 5 -12 342 -16 750 -7 884 -26 2083 -37 2507 -10 333 -8 347 44 388 27 22 32 22 469 23 242 1 554 5 691 9 317 9 383 6 410 -21z"/>
    <path d="M2240 6697 c0 -12 9 -28 21 -35 46 -29 199 -155 199 -164 0 -11 -80 -128 -88 -128 -7 0 -124 111 -141 134 -12 16 -12 22 3 47 28 47 1 67 -39 29 l-21 -20 -83 71 c-81 68 -113 81 -119 48 -2 -10 27 -40 77 -80 44 -34 82 -68 85 -75 5 -12 -34 -74 -46 -74 -4 0 -21 20 -38 44 -37 54 -47 61 -65 46 -17 -14 -10 -33 32 -88 37 -48 37 -48 -19 -130 -31 -45 -33 -75 -7 -80 10 -2 28 16 49 48 18 27 36 50 40 50 5 0 27 -22 50 -50 23 -27 48 -50 56 -50 32 0 24 31 -20 88 -25 32 -46 62 -46 67 0 11 49 75 58 75 4 0 42 -33 85 -74 l78 -74 -67 -106 c-64 -103 -75 -142 -38 -134 9 2 42 43 73 92 31 49 61 91 67 93 6 2 26 -8 43 -23 46 -38 81 -21 44 22 -60 68 -60 55 -3 133 46 63 53 69 67 56 22 -23 52 -37 63 -30 17 10 11 30 -16 56 -17 16 -24 31 -21 46 6 32 -16 48 -42 31 -18 -11 -24 -9 -48 13 -59 54 -190 149 -206 149 -11 0 -17 -8 -17 -23z"/>
    <path d="M2156 4180 c-45 -55 -51 -59 -66 -45 -21 19 -34 19 -49 1 -8 -10 -6 -19 9 -39 29 -37 23 -66 -7 -36 -15 15 -43 4 -43 -16 0 -21 -51 -85 -67 -85 -7 0 -12 -10 -10 -22 1 -17 -4 -24 -21 -26 -31 -5 -40 -31 -17 -48 16 -12 17 -17 6 -40 -14 -33 -13 -34 38 -41 l41 -6 0 54 c0 73 10 86 44 64 35 -23 60 -13 53 22 -4 20 1 31 19 46 13 10 24 27 24 39 0 17 4 19 30 13 37 -8 51 16 26 44 -9 10 -16 20 -16 23 0 3 23 34 50 68 52 65 57 83 24 87 -13 2 -35 -17 -68 -57z m-116 -221 c0 -5 -7 -9 -15 -9 -15 0 -20 12 -9 23 8 8 24 -1 24 -14z"/>
    <path d="M810 6261 c-30 -10 -71 -26 -90 -36 -50 -26 -143 -100 -169 -136 -87 -118 -124 -202 -148 -334 -14 -80 -15 -171 -7 -800 4 -390 9 -1288 10 -1995 2 -1417 -1 -1365 64 -1497 79 -160 224 -253 443 -284 61 -8 550 -10 1902 -5 1151 4 1997 3 2300 -3 1507 -33 1927 -24 2105 42 141 52 229 148 277 302 17 58 18 145 15 2140 -3 2271 -1 2187 -60 2318 -33 72 -123 174 -188 212 -136 79 -231 87 -829 69 -508 -16 -2074 -35 -2233 -27 -118 6 -152 -2 -177 -40 -24 -37 -10 -76 34 -94 31 -13 133 -15 816 -9 429 4 1014 14 1299 22 829 24 880 22 990 -27 53 -23 120 -88 149 -143 52 -102 49 -22 58 -1896 4 -960 4 -1914 0 -2120 l-7 -375 -26 -50 c-62 -121 -148 -165 -363 -185 -151 -14 -905 -26 -905 -14 0 20 194 195 214 193 6 0 28 -23 49 -51 28 -36 36 -53 28 -61 -16 -16 -13 -47 4 -47 8 0 47 30 87 66 100 91 102 91 127 48 12 -19 21 -46 21 -60 0 -14 7 -27 18 -31 9 -4 23 -15 30 -25 7 -10 22 -18 34 -18 20 0 22 18 4 60 -3 8 -2 20 2 25 12 17 100 85 109 85 5 0 19 -18 32 -40 12 -22 26 -42 31 -45 6 -3 37 23 71 59 34 37 64 66 68 66 3 0 14 -20 24 -45 15 -36 24 -45 43 -45 30 0 30 12 0 77 l-24 51 45 42 c42 38 45 43 30 58 -15 14 -20 13 -58 -18 l-42 -33 -19 26 c-19 26 -58 37 -58 17 0 -5 -8 -10 -18 -10 -10 0 -37 -16 -59 -35 -23 -19 -44 -35 -47 -35 -3 0 -15 18 -26 41 -15 28 -26 39 -36 35 -9 -3 -18 -6 -20 -6 -9 0 -3 -23 17 -63 l20 -42 -58 -52 -58 -53 -18 21 c-32 39 -32 66 0 93 22 19 25 27 16 37 -9 9 -19 9 -44 -1 -28 -12 -33 -11 -44 3 -7 9 -20 17 -29 17 -14 0 -17 -7 -14 -36 3 -33 -2 -41 -53 -85 -33 -29 -62 -47 -70 -44 -25 11 -61 77 -54 102 3 13 11 23 18 23 23 1 70 47 64 64 -10 25 -35 19 -88 -19 -47 -35 -48 -35 -59 -15 -11 21 -44 27 -55 10 -4 -6 0 -22 9 -35 16 -24 15 -26 -11 -47 -71 -60 -222 -200 -225 -209 -2 -6 -58 -9 -148 -7 l-145 3 39 24 c35 22 42 23 70 12 60 -24 66 -25 66 -3 0 12 -10 28 -22 36 -12 9 -20 17 -17 19 2 2 52 37 112 76 59 40 107 79 107 87 0 36 -35 24 -146 -50 l-116 -77 -53 37 c-53 36 -85 40 -85 11 0 -8 18 -27 40 -42 22 -15 40 -32 40 -36 0 -5 -16 -19 -35 -31 -18 -13 -39 -34 -45 -47 -10 -23 -13 -23 -88 -15 -42 5 -1107 9 -2367 9 -2152 0 -2294 1 -2354 18 -122 33 -204 94 -251 188 -45 87 -50 148 -50 589 0 228 3 462 6 520 4 58 1 582 -5 1165 -19 1662 -19 1886 1 1972 36 156 119 272 239 335 61 31 70 33 174 34 141 1 134 0 145 29 16 43 -10 91 -57 104 -58 16 -181 12 -243 -8z m6154 -4678 c5 -12 -8 -32 -43 -67 l-50 -50 -13 28 c-12 27 -10 30 32 67 50 43 65 47 74 22z"/>
    <path d="M980 5760 c-10 -18 -7 -22 27 -37 46 -19 104 -22 110 -6 4 12 -85 63 -111 63 -9 0 -20 -9 -26 -20z"/>
    <path d="M793 5714 c-4 -10 9 -31 37 -59 37 -37 40 -45 31 -64 -14 -26 -16 -26 -49 -3 -38 26 -57 32 -73 21 -20 -12 -1 -40 44 -62 l37 -18 -16 -37 c-24 -53 -22 -72 7 -94 37 -28 176 -37 186 -12 10 27 -23 44 -88 43 -78 -1 -86 5 -55 46 15 19 26 40 26 47 0 8 6 22 13 32 16 22 37 14 104 -40 42 -34 67 -42 78 -24 10 15 -5 33 -70 85 -33 27 -62 50 -64 51 -2 2 7 24 20 48 13 25 20 48 17 52 -13 12 -57 -6 -63 -26 -8 -26 -21 -25 -57 5 -34 29 -56 32 -65 9z"/>
    <path d="M819 5329 c-11 -7 -12 -12 -1 -29 17 -28 15 -46 -10 -69 -20 -19 -20 -22 -5 -39 11 -12 17 -36 17 -69 0 -42 -3 -52 -20 -56 -11 -3 -20 -11 -20 -19 0 -7 40 -53 89 -102 62 -62 94 -87 105 -83 28 11 18 31 -45 96 -34 34 -59 64 -57 66 2 2 33 11 67 19 76 18 92 30 69 52 -14 14 -23 15 -62 5 -72 -18 -76 -16 -76 28 l0 40 48 3 c39 3 47 6 47 23 0 15 -10 22 -45 31 -35 8 -46 16 -48 33 -3 21 -1 22 59 19 54 -3 64 0 67 14 2 12 -5 21 -20 27 -35 13 -144 20 -159 10z"/>
    <path d="M5231 5019 c-152 -26 -298 -104 -417 -223 -130 -132 -209 -288 -240 -475 -30 -182 -4 -346 86 -544 27 -60 50 -115 50 -123 0 -7 -51 -50 -112 -97 -231 -173 -359 -346 -446 -602 -43 -125 -62 -246 -62 -395 0 -277 64 -412 217 -456 62 -18 78 -18 683 6 146 6 515 10 820 8 497 -2 561 0 616 15 110 30 166 72 204 154 21 45 22 57 17 208 -4 127 -10 180 -30 257 -29 110 -100 279 -160 383 -98 169 -260 365 -396 480 -39 33 -71 65 -71 70 0 6 18 35 41 65 57 76 114 201 135 294 20 94 15 284 -10 381 -23 86 -97 230 -154 299 -185 223 -493 341 -771 295z m293 -154 c240 -63 428 -245 486 -470 56 -219 26 -391 -98 -564 -109 -151 -102 -189 58 -325 158 -135 302 -321 403 -521 93 -187 131 -337 131 -532 1 -105 0 -113 -23 -137 -51 -54 -72 -56 -721 -56 -328 0 -713 -5 -856 -12 -372 -16 -542 -16 -582 1 -67 28 -99 158 -89 356 9 173 43 307 115 450 83 167 168 264 354 402 71 53 135 108 143 124 29 55 19 110 -39 226 -77 154 -90 209 -91 378 0 119 3 151 23 215 76 245 275 432 505 476 83 15 196 11 281 -11z"/>
    <path d="M5236 4658 c-114 -21 -243 -107 -302 -200 -13 -20 -33 -66 -45 -103 -31 -95 -24 -253 15 -338 91 -200 341 -301 589 -238 91 24 137 47 196 97 235 203 185 602 -92 739 -105 52 -235 67 -361 43z m277 -158 c108 -40 179 -156 180 -295 2 -159 -98 -265 -277 -296 -128 -22 -288 28 -349 108 -58 77 -73 229 -33 325 34 81 120 149 220 175 68 17 189 9 259 -17z"/>
    <path d="M5207 3470 c-277 -47 -512 -223 -651 -490 -109 -209 -135 -381 -71 -471 17 -23 48 -52 70 -63 45 -24 -47 -23 1015 -9 l575 8 45 27 c66 38 95 99 87 182 -21 218 -204 522 -409 679 -141 108 -271 148 -477 146 -75 -1 -158 -5 -184 -9z m357 -146 c207 -53 388 -222 502 -470 37 -79 74 -194 74 -226 0 -43 -24 -45 -655 -52 -330 -3 -657 -9 -726 -12 -120 -6 -127 -6 -148 15 -27 27 -27 73 0 165 74 251 249 454 466 541 133 54 359 72 487 39z"/>
  </g>
</svg>