<svg version="1.0" xmlns="http://www.w3.org/2000/svg" width="800.000000" height="800.000000" viewBox="0 0 800.000000 800.000000" preserveAspectRatio="xMidYMid meet">
  <metadata>
    <rdf:RDF xmlns:rdf="http://www.w3.org/1999/02/22-rdf-syntax-ns#" xmlns:rdfs="http://www.w3.org/2000/01/rdf-schema#" xmlns:dc="http://purl.org/dc/elements/1.1/">
      <rdf:Description dc:format="image/svg+xml" dc:Label="1" dc:ContentProducer="001191330110MACRLGPT8B00000" dc:ProduceID="382409873" dc:ReservedCode1="7gmIZjXYvAJJ8lS+pEQn7hhRupPUFSWCX9/MBNzvfro=" dc:ContentPropagator="001191330110MACRLGPT8B00000" dc:PropagateID="382409873" dc:ReservedCode2="7gmIZjXYvAJJ8lS+pEQn7hhRupPUFSWCX9/MBNzvfro="/>
    </rdf:RDF>
  </metadata>
  <g transform="translate(183.513495,618.161258) scale(0.054279,-0.054279)" fill="#000000" stroke="none">
    <path d="M3750 7883 c-468 -35 -957 -160 -1365 -348 -41 -19 -77 -35 -78 -35 -10 0 -245 -130 -332 -183 -582 -355 -1019 -810 -1347 -1402 -66 -119 -149 -296 -202 -433 -124 -319 -195 -588 -248 -944 -20 -137 -23 -190 -23 -508 0 -371 6 -446 55 -710 90 -483 265 -939 515 -1345 386 -627 915 -1112 1564 -1435 389 -193 817 -317 1276 -370 282 -32 734 -25 974 16 320 53 566 118 813 214 257 100 561 257 762 392 260 176 579 462 781 702 417 495 721 1123 849 1756 90 441 102 922 35 1370 -112 746 -480 1527 -970 2055 -218 235 -406 398 -654 567 -450 307 -877 482 -1415 581 -167 31 -184 33 -400 52 -154 13 -464 18 -590 8z m715 -147 c166 -20 393 -64 563 -111 145 -39 381 -120 396 -135 6 -6 16 -10 24 -10 22 0 227 -101 368 -180 287 -162 504 -324 741 -553 305 -296 521 -594 722 -997 203 -408 325 -807 388 -1270 25 -188 26 -718 0 -896 -66 -466 -169 -816 -356 -1209 -137 -286 -301 -543 -508 -795 -2 -2 -17 10 -33 27 -16 17 -35 33 -42 35 -8 3 -3 16 16 41 48 63 11 95 -39 35 -69 -84 -128 -139 -139 -128 -5 5 -16 10 -23 10 -16 0 -17 -36 -2 -46 7 -4 -3 -20 -24 -43 -20 -20 -62 -65 -95 -100 l-60 -65 -36 40 c-20 21 -36 41 -36 44 0 3 20 30 45 60 44 53 55 83 36 95 -5 3 -35 -24 -67 -59 -50 -58 -60 -64 -85 -59 -30 6 -40 -12 -19 -33 6 -6 -2 -23 -25 -48 l-34 -39 -33 28 c-21 18 -32 36 -33 54 0 23 -3 26 -34 23 -18 -1 -40 3 -48 9 -25 21 -36 -5 -14 -33 l20 -25 -51 -59 c-28 -33 -119 -130 -203 -216 l-152 -157 -48 49 c-33 34 -48 57 -49 77 -1 22 -6 28 -23 28 -12 0 -35 13 -51 29 -29 27 -52 28 -52 4 0 -6 11 -26 25 -43 l24 -32 -24 -23 c-44 -41 -24 -77 21 -41 15 12 32 21 40 21 19 0 94 -92 94 -116 0 -16 8 -23 30 -28 59 -11 49 -31 -70 -151 -79 -79 -111 -118 -107 -129 4 -9 11 -16 17 -16 6 0 62 52 125 115 l115 115 37 -35 c21 -19 43 -35 49 -35 28 0 24 24 -10 59 -20 20 -36 41 -36 47 0 5 19 29 43 52 l43 42 41 -45 c43 -48 63 -56 63 -27 0 20 -72 122 -96 135 -23 13 -44 1 -45 -25 0 -15 -17 -37 -46 -61 -43 -36 -46 -37 -64 -21 -19 17 -15 22 129 168 81 83 176 182 210 220 l61 68 30 -23 c35 -28 37 -36 13 -58 -33 -30 -162 -182 -162 -190 0 -5 6 -14 14 -20 11 -10 30 6 97 81 46 51 90 98 98 104 17 13 34 4 103 -49 41 -31 47 -30 91 20 16 18 33 33 39 33 12 0 69 -62 66 -72 -2 -3 -57 -50 -123 -103 -133 -107 -386 -279 -510 -346 -143 -78 -279 -145 -335 -166 -90 -35 -99 -37 -107 -16 -4 10 -12 23 -18 28 -32 29 -86 107 -79 114 5 4 37 31 72 61 62 53 75 76 47 86 -9 4 -42 -17 -86 -57 l-71 -63 -18 22 c-56 69 -72 83 -87 80 -29 -5 -24 -22 22 -75 25 -28 45 -53 45 -56 0 -7 -141 -120 -144 -115 -20 28 -106 170 -106 175 0 4 56 60 125 126 123 117 144 147 106 147 -20 0 -202 -162 -361 -320 -47 -47 -137 -129 -200 -184 -109 -93 -134 -127 -100 -134 19 -3 320 250 372 312 9 12 19 19 21 16 3 -3 28 -43 57 -89 43 -69 49 -86 38 -96 -7 -6 -52 -45 -100 -85 -49 -39 -88 -75 -88 -79 0 -31 -371 -88 -649 -101 -737 -34 -1472 155 -2102 540 -573 350 -1069 895 -1366 1500 -42 85 -79 163 -84 172 -40 81 -130 329 -165 452 -95 336 -136 575 -154 914 -31 590 91 1207 351 1772 92 201 144 294 278 498 242 370 600 727 996 992 74 49 136 90 139 90 2 0 40 21 83 46 263 156 627 304 953 387 186 48 451 92 670 111 103 9 592 -3 715 -18z m2269 -6167 l26 -47 -37 -32 c-34 -30 -38 -32 -48 -15 -5 10 -20 30 -33 46 l-23 28 37 41 c41 45 40 45 78 -21z m-114 -94 c13 -14 29 -25 37 -25 21 0 15 -14 -18 -46 -22 -20 -33 -25 -36 -16 -3 7 -16 26 -30 43 -24 29 -25 30 -8 49 23 25 27 25 55 -5z m-63 -84 l33 -40 -56 -53 c-30 -29 -59 -54 -63 -56 -4 -1 -22 14 -41 33 l-34 35 59 60 c33 33 62 60 65 60 3 0 20 -18 37 -39z m-270 -33 c18 -18 33 -38 33 -44 0 -7 -16 -29 -36 -48 l-35 -34 -35 37 c-19 21 -34 42 -34 47 0 9 61 74 69 74 3 0 20 -14 38 -32z m-1031 -745 c20 -27 46 -55 57 -64 19 -15 17 -17 -54 -43 -41 -15 -84 -32 -97 -37 -13 -5 -27 -9 -32 -9 -8 0 -60 72 -60 84 0 7 131 116 140 116 4 0 25 -21 46 -47z m-199 -139 c16 -25 19 -36 10 -39 -68 -23 -159 -46 -168 -43 -10 3 117 117 131 117 3 0 15 -16 27 -35z"/>
    <path d="M4580 5793 c-36 -18 -192 -169 -494 -482 l-177 -184 -272 270 c-150 148 -293 286 -318 306 -162 129 -359 107 -506 -58 -26 -29 -158 -167 -293 -307 -348 -360 -676 -712 -704 -756 -40 -61 -52 -122 -36 -184 24 -95 42 -118 384 -473 127 -131 241 -250 254 -263 29 -30 68 -26 95 10 16 22 19 33 11 53 -5 14 -128 149 -273 300 -312 324 -341 360 -341 419 0 33 8 51 44 96 68 86 646 696 958 1013 75 76 116 97 185 97 91 -1 118 -22 425 -328 159 -157 287 -289 286 -293 -2 -4 -52 -60 -113 -124 -136 -144 -159 -181 -159 -250 0 -88 53 -141 176 -178 59 -18 98 -22 208 -22 125 0 139 2 190 26 30 15 75 43 100 63 l45 37 410 -414 c226 -228 423 -432 438 -455 39 -56 45 -109 18 -165 -21 -42 -54 -67 -89 -67 -35 1 -100 39 -192 114 -101 81 -161 116 -201 116 -36 0 -84 -33 -98 -69 -24 -56 -8 -88 99 -206 122 -135 155 -191 143 -242 -11 -49 -52 -78 -106 -77 -54 1 -110 30 -178 92 -159 143 -208 168 -268 138 -42 -22 -63 -58 -63 -107 1 -48 5 -55 112 -179 118 -137 148 -206 116 -268 -18 -34 -33 -42 -84 -42 -50 0 -94 25 -219 125 -58 46 -117 85 -132 88 -52 10 -112 -31 -125 -85 -10 -42 14 -83 112 -196 96 -109 120 -160 108 -225 -11 -60 -66 -88 -130 -67 -35 11 -328 300 -883 868 -180 185 -190 193 -223 190 -44 -4 -70 -43 -55 -82 6 -14 241 -259 522 -545 374 -378 525 -525 557 -541 129 -62 264 -23 322 93 23 45 26 60 22 128 -3 49 -12 91 -25 118 -11 22 -19 41 -17 41 2 0 27 -9 56 -21 33 -13 78 -21 118 -22 81 -1 140 28 185 91 28 41 30 50 30 131 0 77 -3 93 -32 149 -17 35 -28 62 -25 60 99 -52 130 -62 202 -62 86 -1 116 12 174 71 38 40 66 110 66 169 0 39 -32 117 -67 163 -14 18 -22 32 -17 29 5 -2 34 -16 66 -31 79 -39 170 -46 224 -19 43 22 94 74 118 120 8 16 36 46 63 67 73 60 404 382 576 562 135 142 162 191 161 293 0 95 -16 127 -127 252 -151 169 -586 627 -817 859 -260 262 -300 289 -419 289 -41 0 -79 -7 -101 -17z m166 -128 c44 -18 184 -154 548 -535 507 -529 600 -633 616 -692 13 -44 -3 -96 -42 -142 l-33 -37 -34 34 -33 35 20 29 c31 43 37 72 16 80 -17 6 -34 -9 -60 -53 -10 -17 -12 -17 -39 4 -15 12 -32 22 -36 22 -14 0 -10 -34 6 -58 12 -16 13 -26 5 -42 -14 -26 -16 -26 -66 15 -44 36 -69 44 -77 23 -3 -9 -14 -4 -34 15 -52 48 -80 28 -37 -29 l27 -35 -74 -77 c-41 -42 -75 -79 -77 -81 -1 -3 -8 1 -14 7 -17 17 -38 15 -38 -3 0 -8 5 -15 10 -15 21 0 8 -20 -70 -106 -44 -49 -80 -95 -80 -102 0 -28 33 -25 58 4 13 16 49 55 80 87 l55 59 28 -29 29 -28 -60 -67 c-33 -36 -60 -73 -60 -82 0 -33 39 -14 91 44 29 33 57 60 63 60 5 0 23 -12 39 -27 l29 -28 -118 -112 -119 -111 -12 29 c-26 62 -117 162 -500 549 l-396 400 83 86 c72 75 81 89 75 112 -3 15 -15 35 -27 45 -42 35 -60 24 -223 -132 -166 -160 -210 -189 -299 -198 -114 -12 -296 35 -296 77 0 23 54 84 254 290 89 91 276 284 416 429 140 145 269 273 285 283 36 22 74 23 121 3z m874 -1411 c0 -26 -19 -23 -40 6 -28 39 -16 59 16 29 13 -12 24 -28 24 -35z m126 25 c3 -6 19 -18 34 -27 l28 -17 -27 -33 -27 -32 -27 41 c-22 34 -25 43 -14 60 13 22 23 24 33 8z m-199 -51 c29 -27 29 -49 1 -75 l-23 -21 -33 28 -33 27 26 32 c15 17 29 31 33 31 3 0 16 -10 29 -22z m152 -49 l33 -31 -48 -49 c-27 -27 -53 -49 -59 -49 -7 0 -22 11 -35 25 -23 24 -23 25 -5 45 19 21 50 26 60 10 8 -13 35 -13 35 1 0 6 -9 22 -20 36 -18 23 -19 43 -2 43 4 0 22 -14 41 -31z m-235 -55 l29 -26 -25 -24 c-27 -28 -44 -25 -71 12 -18 24 -18 26 -1 45 22 25 33 24 68 -7z m101 -91 l29 -26 -29 -23 c-36 -29 -34 -29 -68 -2 l-27 22 27 28 c15 15 29 28 32 28 3 0 19 -12 36 -27z"/>
    <path d="M3090 5255 c-28 -36 -54 -65 -57 -65 -3 0 -21 14 -40 30 -38 34 -48 37 -57 15 -3 -9 8 -31 29 -54 l35 -38 -81 -92 c-90 -101 -85 -100 -139 -31 l-30 38 30 37 c17 21 30 44 30 51 0 24 -28 15 -50 -16 -26 -37 -52 -38 -74 -5 -9 14 -23 25 -32 25 -26 0 -27 -29 0 -61 14 -17 26 -36 26 -42 0 -7 -25 -35 -55 -62 -30 -28 -55 -57 -55 -66 0 -26 -97 -123 -123 -124 -18 0 -22 -6 -22 -31 0 -22 -20 -56 -79 -133 l-78 -103 -34 33 c-24 24 -37 30 -45 22 -13 -13 12 -67 36 -76 12 -5 10 -14 -15 -53 -32 -51 -31 -64 5 -64 17 0 29 9 41 32 9 18 60 89 112 159 105 139 103 138 153 76 l21 -28 -66 -75 c-36 -41 -66 -79 -66 -85 0 -5 8 -13 17 -16 12 -5 33 11 78 60 34 37 66 67 73 67 6 0 21 -13 34 -30 23 -32 58 -40 58 -14 0 9 -14 34 -31 55 l-30 39 53 61 53 60 50 -55 c47 -52 72 -66 88 -50 6 6 -17 37 -90 125 -12 14 -8 23 30 64 l43 48 59 -62 c52 -55 60 -60 74 -47 13 14 9 22 -37 75 -29 33 -52 64 -52 70 0 11 147 184 161 189 5 2 34 -19 65 -47 54 -49 94 -65 94 -38 0 8 -27 40 -60 71 -33 32 -60 60 -60 63 0 3 23 34 51 69 49 62 58 94 25 94 -8 0 -38 -29 -66 -65z m-349 -268 c65 -62 64 -59 19 -116 -22 -28 -44 -50 -48 -50 -19 3 -33 -2 -28 -10 7 -10 -39 -75 -81 -114 l-30 -28 -37 41 -37 41 31 37 c17 21 30 48 30 64 0 33 18 36 61 11 38 -22 46 -11 26 33 l-18 36 43 38 c24 22 43 39 44 40 1 0 12 -10 25 -23z"/>
    <path d="M2034 4495 c-3 -8 3 -26 15 -41 l21 -26 -25 -30 c-14 -16 -25 -33 -25 -38 0 -21 24 -21 53 0 29 22 30 22 44 4 45 -62 128 -154 139 -154 31 0 21 27 -46 115 l-72 94 27 35 c39 51 15 78 -31 35 l-23 -21 -27 21 c-32 25 -43 26 -50 6z"/>
  </g>
</svg>